<?xml version="1.0" encoding="utf-8"?>
<!-- Generator: Adobe Illustrator 27.3.1, SVG Export Plug-In . SVG Version: 6.00 Build 0)  -->
<svg version="1.1" id="Layer_1" xmlns="http://www.w3.org/2000/svg" xmlns:xlink="http://www.w3.org/1999/xlink" x="0px" y="0px"
	 viewBox="0 0 1000 1000" style="enable-background:new 0 0 1000 1000;" xml:space="preserve">
<style type="text/css">
	.st0{fill:#007FFF;}
	.st1{fill:#FF00FF;}
	.st2{fill:#FFFF00;}
	.st3{fill:#333333;}
	.st4{fill:#FFFFFF;}
	.st5{fill:#808080;}
	.st6{fill:#88BDF2;}
	.st7{fill:#07223B;}
	.st8{fill:#00FFFF;}
</style>
<g>
	<g>
		<path d="M990.87,500.08c0,270.99-219.81,490.8-490.95,490.8c-270.99,0-490.8-219.81-490.8-490.8
			c0-231.16,159.75-424.98,374.77-477.16c20.86-5.06,42.24-8.76,64.04-11.08c17.1-1.78,34.44-2.71,51.99-2.71
			C771.06,9.13,990.87,228.94,990.87,500.08z"/>
		<path d="M180.66,510.84c0,55.79,45.25,101.04,101.04,101.04c55.82,0,101.07-45.25,101.07-101.04
			c0-55.82-45.25-101.07-101.07-101.07C225.91,409.77,180.66,455.02,180.66,510.84z"/>
	</g>
	<path class="st4" d="M385.39,22.16v356.75c-28.54-22.46-64.55-35.86-103.69-35.86c-92.64,0-167.75,75.12-167.75,167.78
		c0,92.64,75.12,167.75,167.75,167.75c88.9,0,161.67-69.15,167.42-156.58c0.15-2.26,0.24-4.55,0.3-6.83V11.08
		C427.63,13.4,406.25,17.1,385.39,22.16z M281.7,611.88c-55.79,0-101.04-45.25-101.04-101.04c0-55.82,45.25-101.07,101.04-101.07
		c55.82,0,101.07,45.25,101.07,101.07C382.77,566.63,337.52,611.88,281.7,611.88z"/>
	<path class="st4" d="M889.72,492.39v79.72c0,39.04-21.17,73.02-52.37,90.4c-14.1,7.87-30.28,12.32-47.46,12.32
		c-17.18,0-33.35-4.45-47.46-12.32c-31.2-17.38-52.37-51.36-52.37-90.4v-79.72c0-17.06,13.82-30.88,30.88-30.88
		c8.53,0,16.26,3.45,21.83,9.05c2.33,2.33,4.31,5.03,5.77,8.01c2.1,4.17,3.27,8.85,3.27,13.82v84.02
		c0,21.03,17.03,38.06,38.06,38.06c21.03,0,38.06-17.03,38.06-38.06v-84.02c0-4.97,1.18-9.65,3.27-13.82
		c5.06-10.11,15.51-17.06,27.61-17.06c8.53,0,16.26,3.45,21.83,9.05C886.28,476.13,889.72,483.86,889.72,492.39z"/>
	<g>
		<path class="st4" d="M650.11,540.76c-10.18,10.36-26.86,10.53-37.21,0.35c-8.31-8.19-23.81-13.11-38.5-12.17
			c-1.58,0.12-3.16,0.23-4.68,0.47v110.41c0,20.42-16.5,36.92-36.86,36.92c-20.42,0-36.92-16.5-36.92-36.92V499.46
			c0-20.42,16.5-36.92,36.92-36.92c10.18,0,19.37,4.15,26.04,10.82c1.23,1.23,2.34,2.52,3.34,3.92c2.93-0.47,5.97-0.76,9.01-0.94
			c29.67-1.76,59.62,8.66,78.52,27.15C660.11,513.67,660.29,530.35,650.11,540.76z"/>
	</g>
</g>
</svg>
