<?xml version="1.0" encoding="UTF-8"?>
<svg version="1.1" xmlns="http://www.w3.org/2000/svg" width="1898" height="869">
<path d="M0 0 C626.34 0 1252.68 0 1898 0 C1898 286.77 1898 573.54 1898 869 C1271.66 869 645.32 869 0 869 C0 582.23 0 295.46 0 0 Z " fill="#18181B" transform="translate(0,0)"/>
<path d="M0 0 C626.01 0 1252.02 0 1897 0 C1897 30.36 1897 60.72 1897 92 C1270.99 92 644.98 92 0 92 C0 61.64 0 31.28 0 0 Z " fill="#18181B" transform="translate(0,777)"/>
<path d="M0 0 C0.67438158 -0.00623996 1.34876315 -0.01247993 2.04358053 -0.01890898 C4.30239969 -0.03485881 6.56014265 -0.02222811 8.81896973 -0.00964355 C10.43867116 -0.01506383 12.05836766 -0.02218597 13.67805481 -0.03088379 C18.07682934 -0.04913144 22.47522894 -0.04204377 26.87401009 -0.02936745 C31.47526187 -0.01924721 36.07648134 -0.02863041 40.67773438 -0.03491211 C48.4050473 -0.04219137 56.13220735 -0.03259353 63.85949707 -0.0135498 C72.7959873 0.0082195 81.7321125 0.00116833 90.66859388 -0.02085543 C98.33834443 -0.03900152 106.00798503 -0.04157163 113.67775011 -0.03110075 C118.25985225 -0.02486145 122.84178276 -0.02404213 127.4238739 -0.0372467 C131.73154492 -0.04879312 136.03874489 -0.04080187 140.34636497 -0.01766968 C141.92821152 -0.01237608 143.51009763 -0.01390751 145.09192848 -0.02272034 C147.24972948 -0.03363459 149.40601648 -0.01996495 151.5637207 0 C152.771605 0.0015081 153.97948929 0.0030162 155.22397614 0.00457001 C158.91665265 0.61242903 160.10651717 1.49949065 162.28186035 4.50793457 C162.78522491 6.51945496 162.78522491 6.51945496 162.78979492 8.68249512 C162.80107422 9.50680023 162.81235352 10.33110535 162.82397461 11.1803894 C162.81587769 12.0760965 162.80778076 12.97180359 162.79943848 13.89465332 C162.80644775 14.84466217 162.81345703 15.79467102 162.82067871 16.77346802 C162.83828697 19.91442068 162.82662563 23.05447271 162.81311035 26.19543457 C162.81580444 28.3773211 162.81968617 30.55920645 162.82470703 32.74108887 C162.83060593 37.31420318 162.82202627 41.88700501 162.80334473 46.46008301 C162.78055525 52.32491427 162.79367619 58.18901336 162.81763458 64.05381775 C162.8320818 68.55938239 162.82749145 73.06477317 162.81712341 77.57034302 C162.81445316 79.73292121 162.81773633 81.89551513 162.82704163 84.05807495 C162.83718922 87.07954787 162.82173061 90.09983158 162.79943848 93.12121582 C162.8075354 94.01692291 162.81563232 94.91263 162.82397461 95.83547974 C162.81269531 96.65978485 162.80141602 97.48408997 162.78979492 98.33337402 C162.78828682 99.04717728 162.78677872 99.76098053 162.78522491 100.49641418 C162.02937561 103.51690152 160.76662539 104.66544833 158.28186035 106.50793457 C155.22397614 107.01129913 155.22397614 107.01129913 151.5637207 107.01586914 C150.88933913 107.0221091 150.21495755 107.02834907 149.52014017 107.03477812 C147.26132101 107.05072795 145.00357805 107.03809725 142.74475098 107.0255127 C141.12504954 107.03093298 139.50535304 107.03805511 137.88566589 107.04675293 C133.48689137 107.06500058 129.08849177 107.05791291 124.68971062 107.04523659 C120.08845883 107.03511635 115.48723936 107.04449955 110.88598633 107.05078125 C103.1586734 107.05806051 95.43151335 107.04846267 87.70422363 107.02941895 C78.76773341 107.00764964 69.8316082 107.01470082 60.89512682 107.03672457 C53.22537627 107.05487066 45.55573567 107.05744077 37.88597059 107.04696989 C33.30386846 107.04073059 28.72193794 107.03991127 24.1398468 107.05311584 C19.83217578 107.06466226 15.52497581 107.05667101 11.21735573 107.03353882 C9.63550919 107.02824522 8.05362307 107.02977666 6.47179222 107.03858948 C4.31399122 107.04950373 2.15770422 107.03583409 0 107.01586914 C-1.20788429 107.01436104 -2.41576859 107.01285294 -3.66025543 107.01129913 C-7.35293195 106.40344011 -8.54279646 105.51637849 -10.71813965 102.50793457 C-11.22150421 100.49641418 -11.22150421 100.49641418 -11.22607422 98.33337402 C-11.23735352 97.50906891 -11.24863281 96.68476379 -11.26025391 95.83547974 C-11.25215698 94.93977264 -11.24406006 94.04406555 -11.23571777 93.12121582 C-11.24272705 92.17120697 -11.24973633 91.22119812 -11.25695801 90.24240112 C-11.27456627 87.10144846 -11.26290492 83.96139643 -11.24938965 80.82043457 C-11.25208374 78.63854804 -11.25596547 76.45666269 -11.26098633 74.27478027 C-11.26688523 69.70166596 -11.25830557 65.12886413 -11.23962402 60.55578613 C-11.21683455 54.69095487 -11.22995549 48.82685578 -11.25391388 42.96205139 C-11.26836109 38.45648675 -11.26377075 33.95109597 -11.25340271 29.44552612 C-11.25073246 27.28294793 -11.25401562 25.12035401 -11.26332092 22.95779419 C-11.27346852 19.93632127 -11.2580099 16.91603756 -11.23571777 13.89465332 C-11.2438147 12.99894623 -11.25191162 12.10323914 -11.26025391 11.1803894 C-11.24897461 10.35608429 -11.23769531 9.53177917 -11.22607422 8.68249512 C-11.22456612 7.96869186 -11.22305801 7.25488861 -11.22150421 6.51945496 C-9.73391285 0.57481646 -5.44073039 0.00679302 0 0 Z " fill="#21C45D" transform="translate(100.7181396484375,459.4920654296875)"/>
<path d="M0 0 C19.47 0 38.94 0 59 0 C59 6.27 59 12.54 59 19 C47.45 19 35.9 19 24 19 C24 26.26 24 33.52 24 41 C34.89 41 45.78 41 57 41 C57 47.27 57 53.54 57 60 C46.11 60 35.22 60 24 60 C24 67.26 24 74.52 24 82 C36.54 82 49.08 82 62 82 C62.495 87.445 62.495 87.445 63 93 C63.90540527 90.47956055 63.90540527 90.47956055 64.82910156 87.90820312 C67.6333517 80.10449058 70.44058331 72.30185387 73.25 64.5 C73.62654095 63.45432043 73.62654095 63.45432043 74.01068878 62.38751602 C81.52181527 41.53238868 89.13508535 20.72511293 97 0 C106.57 0 116.14 0 126 0 C126.99 3.3 127.98 6.6 129 10 C129.62387324 11.66871516 130.27195472 13.32914503 130.96875 14.96875 C133.41704479 20.92657763 135.37401185 27.01920557 137.35546875 33.14453125 C138.77816387 37.48986703 140.27348728 41.76522024 142 46 C144.42593005 51.95030627 146.37870876 58.03372525 148.35546875 64.14453125 C150.06729827 69.37296983 151.95108991 74.48173436 154.02734375 79.57617188 C155.54057188 83.34708776 156.90147375 87.16770858 158.25 91 C158.6521875 92.12341797 158.6521875 92.12341797 159.0625 93.26953125 C161 98.75581952 161 98.75581952 161 101 C152.42 101 143.84 101 135 101 C132.66666667 94 130.33333333 87 128 80 C116.45 80 104.9 80 93 80 C91.4402926 85.41332202 91.4402926 85.41332202 89.88916016 90.82910156 C89.59211182 91.84955566 89.59211182 91.84955566 89.2890625 92.890625 C89.09006348 93.58188477 88.89106445 94.27314453 88.68603516 94.98535156 C88 97 88 97 86 101 C57.62 101 29.24 101 0 101 C0 67.67 0 34.34 0 0 Z " fill="#F7F7F7" transform="translate(510,356)"/>
<path d="M0 0 C1.5630016 1.20192046 3.10656264 2.42975011 4.625 3.6875 C5.26050781 4.18765625 5.89601563 4.6878125 6.55078125 5.203125 C14.31350397 12.01917421 19.96798679 24.16796657 20.8581543 34.35595703 C21.45145637 47.22378639 21.63957699 59.02334674 15.625 70.6875 C15.16738281 71.60402344 14.70976563 72.52054688 14.23828125 73.46484375 C8.24813231 84.37840277 -0.71300028 91.825131 -12.3203125 96.109375 C-25.92200907 99.93646833 -41.82065957 99.19472357 -54.375 92.6875 C-57.70329938 90.63471655 -60.55092102 88.38731951 -63.375 85.6875 C-64.31085937 84.79417969 -64.31085937 84.79417969 -65.265625 83.8828125 C-75.37267766 73.29237906 -78.73452688 60.76682678 -78.75 46.5625 C-78.77449219 45.40234375 -78.79898438 44.2421875 -78.82421875 43.046875 C-78.87386001 28.25377963 -73.63859861 16.01463488 -63.4375 5.3125 C-46.75493314 -10.28761024 -19.1405661 -12.72217268 0 0 Z " fill="#FAFAFB" transform="translate(927.375,592.3125)"/>
<path d="M0 0 C9.79624334 7.19467689 18.50512873 17.31448665 20.6015625 29.6953125 C20.85224011 32.87984655 21.03938681 36.05883395 21.1875 39.25 C21.22681641 39.97123047 21.26613281 40.69246094 21.30664062 41.43554688 C22.1225938 57.93439665 19.08219606 70.65432621 8.2265625 83.5859375 C0.50556718 91.97589992 -9.69389005 97.46115359 -21.16333008 98.45336914 C-23.67541558 98.55309276 -26.17352267 98.57922958 -28.6875 98.5625 C-29.57300537 98.55686035 -30.45851074 98.5512207 -31.37084961 98.54541016 C-37.61918714 98.42907094 -43.08717708 97.92181736 -48.8125 95.25 C-49.73289062 94.82460938 -50.65328125 94.39921875 -51.6015625 93.9609375 C-64.41855861 87.5006187 -72.14666547 76.74502911 -76.8125 63.25 C-80.32466213 47.66920023 -79.10765467 30.02018853 -71.015625 16.17578125 C-63.33434567 4.91502575 -53.42650341 -3.18140734 -40.02319336 -6.35302734 C-26.46615409 -8.78745538 -11.78907201 -7.31322094 0 0 Z " fill="#FAFAFA" transform="translate(619.8125,475.75)"/>
<path d="M0 0 C28.38 0 56.76 0 86 0 C101 35 101 35 103 40 C105.03178882 36.95231677 106.41557 33.99190383 107.8984375 30.64453125 C108.17466949 30.02406418 108.45090149 29.40359711 108.73550415 28.764328 C109.61795125 26.78153507 110.49678101 24.79716887 111.375 22.8125 C112.24638781 20.84582613 113.11863111 18.87954853 113.99307251 16.91423035 C114.79215544 15.11795013 115.58830193 13.32036447 116.38427734 11.52270508 C118.16559434 7.6389603 120.08915915 3.82168169 122 0 C129.92 0 137.84 0 146 0 C144.5524084 4.34277479 143.30454918 7.534404 141.12670898 11.41821289 C140.54959167 12.46073715 139.97247437 13.50326141 139.37786865 14.57737732 C138.75688293 15.69781937 138.13589722 16.81826141 137.49609375 17.97265625 C116.16658606 57.1020304 116.16658606 57.1020304 114 101 C106.08 101 98.16 101 90 101 C90.05542969 98.52371094 90.11085938 96.04742188 90.16796875 93.49609375 C90.39216582 74.34690566 89.69145311 59.07148586 79.40283203 42.32373047 C77.32837315 38.88747922 75.61592061 35.30032519 73.875 31.6875 C73.2502584 30.43996861 72.62265477 29.19386635 71.9921875 27.94921875 C69.64750103 23.30645274 67.32441461 18.65293919 65 14 C64.229229 12.45830217 63.45840146 10.9166326 62.6875 9.375 C62.130625 8.26125 61.57375 7.1475 61 6 C60.67 10.29 60.34 14.58 60 19 C48.12 19 36.24 19 24 19 C24 26.26 24 33.52 24 41 C34.89 41 45.78 41 57 41 C57 47.27 57 53.54 57 60 C46.11 60 35.22 60 24 60 C24 67.26 24 74.52 24 82 C36.54 82 49.08 82 62 82 C62 88.27 62 94.54 62 101 C41.54 101 21.08 101 0 101 C0 67.67 0 34.34 0 0 Z " fill="#F9F9F9" transform="translate(296,471)"/>
<path d="M0 0 C8.58 0 17.16 0 26 0 C28.34216554 10.66474815 30.67743845 21.33096435 33 32 C33.23364258 33.0729834 33.46728516 34.1459668 33.70800781 35.25146484 C34.26807286 37.83339151 34.82302863 40.41633285 35.375 43 C35.53000977 43.71389893 35.68501953 44.42779785 35.84472656 45.16333008 C36.55988987 48.53999235 37.13642208 51.89475976 37.5390625 55.3203125 C37.86000733 58.91962168 37.86000733 58.91962168 39 61.875 C40.38283518 66.19635994 40.64117268 70.49666568 41 75 C41.1222998 74.19232178 41.24459961 73.38464355 41.37060547 72.55249023 C43.74777964 58.47338209 47.72635044 44.8086412 51.56469727 31.07305908 C52.31982394 28.36340463 53.06738822 25.65168766 53.81488228 22.93991947 C54.70878844 19.69979128 55.60836481 16.46125072 56.5078125 13.22265625 C56.84322052 12.00933121 57.17862854 10.79600616 57.52420044 9.5459137 C57.83477386 8.43642868 58.14534729 7.32694366 58.46533203 6.18383789 C58.73830109 5.20395401 59.01127014 4.22407013 59.29251099 3.2144928 C60 1 60 1 61 0 C62.85369611 -0.08737645 64.71067541 -0.10698153 66.56640625 -0.09765625 C67.69111328 -0.09443359 68.81582031 -0.09121094 69.97460938 -0.08789062 C71.15861328 -0.07951172 72.34261719 -0.07113281 73.5625 -0.0625 C74.75037109 -0.05798828 75.93824219 -0.05347656 77.16210938 -0.04882812 C80.10812226 -0.03699675 83.05403681 -0.02051287 86 0 C90.01369527 13.3201755 93.42071318 26.73178167 96.52026367 40.28979492 C98.27318728 47.94316267 100.12146026 55.53921056 102.2734375 63.08984375 C103.0935868 66.37485034 103.57149965 69.64341389 104 73 C104.11754639 72.27586914 104.23509277 71.55173828 104.35620117 70.80566406 C105.56727831 63.43141833 106.89342466 56.08688532 108.3125 48.75 C108.52688721 47.64043945 108.74127441 46.53087891 108.9621582 45.38769531 C110.49540383 37.49988052 112.06798649 29.62055568 113.6875 21.75 C113.88964111 20.75709961 114.09178223 19.76419922 114.30004883 18.74121094 C115.27962655 14.03369389 116.41883297 9.54837835 118 5 C118.33 3.35 118.66 1.7 119 0 C126.92 0 134.84 0 143 0 C140.87379068 10.63104661 140.87379068 10.63104661 139 16 C138.07644264 19.21914078 137.21774338 22.45538392 136.35546875 25.69140625 C136.10380447 26.63193344 135.8521402 27.57246063 135.59284973 28.54148865 C135.0598902 30.53578717 134.52790417 32.53034608 133.99682617 34.52514648 C133.2037767 37.5014145 132.40581507 40.47633357 131.60742188 43.45117188 C128.78870379 53.9977593 126.0845135 64.55814848 123.63871765 75.19813538 C123.45154678 76.00536545 123.26437592 76.81259552 123.0715332 77.64428711 C122.91191605 78.34347763 122.75229889 79.04266815 122.58784485 79.76304626 C121.85638369 82.54650991 120.91009369 85.26971892 120 88 C119.01 92.29 118.02 96.58 117 101 C108.09 101 99.18 101 90 101 C86.22537313 87.10937314 82.50955747 73.22082458 79.07324219 59.24291992 C77.44795647 52.66935786 75.66614681 46.17718177 73.6640625 39.70703125 C73.00629645 37.02566729 72.86937556 34.74813717 73 32 C72.34 32 71.68 32 71 32 C70.87399414 32.99676758 70.74798828 33.99353516 70.61816406 35.02050781 C70.05116009 38.97466012 69.12375182 42.81156165 68.109375 46.671875 C67.83188164 47.74622047 67.83188164 47.74622047 67.54878235 48.8422699 C66.95282022 51.14580617 66.35150577 53.44790575 65.75 55.75 C65.33880588 57.3349631 64.92791822 58.92000575 64.51733398 60.50512695 C62.19821391 69.44793458 59.8675809 78.38805017 57.49707031 87.31738281 C56.28874283 91.86942471 55.14261357 96.42954571 54 101 C44.76 101 35.52 101 26 101 C23.125 89.375 23.125 89.375 22.23095703 85.74365234 C21.99231934 84.78410645 21.75368164 83.82456055 21.5078125 82.8359375 C21.14647217 81.37486572 21.14647217 81.37486572 20.77783203 79.88427734 C19.96690077 76.8772648 18.99318834 73.95111562 18 71 C17.21093582 67.74905558 16.49704368 64.48650378 15.78125 61.21875 C15.07693567 58.09586061 15.07693567 58.09586061 14.14111328 55.51464844 C12.53851879 50.57862998 11.26369488 45.56917683 9.9609375 40.546875 C9.67521881 39.45030579 9.38950012 38.35373657 9.09512329 37.22393799 C8.49402975 34.91453286 7.89398422 32.60485473 7.29492188 30.29492188 C6.37443416 26.74781955 5.44913991 23.20199453 4.5234375 19.65625 C3.93981445 17.41153364 3.35647131 15.16674448 2.7734375 12.921875 C2.49535248 11.85733093 2.21726746 10.79278687 1.93075562 9.69598389 C1.55003403 8.22370331 1.55003403 8.22370331 1.16162109 6.72167969 C0.9367099 5.85597351 0.71179871 4.99026733 0.48007202 4.09832764 C0 2 0 2 0 0 Z " fill="#F9F9F9" transform="translate(91,356)"/>
<path d="M0 0 C1.77256165 -0.01279495 1.77256165 -0.01279495 3.58093262 -0.02584839 C5.51279671 -0.02448883 5.51279671 -0.02448883 7.48368835 -0.02310181 C8.86059432 -0.02908951 10.23749692 -0.03589561 11.61439514 -0.04345703 C15.34800623 -0.06110089 19.08152559 -0.06581176 22.81517434 -0.0670886 C25.15019127 -0.06851181 27.485185 -0.07278465 29.82019615 -0.07808304 C37.97317862 -0.09657881 46.12609576 -0.10475432 54.27909851 -0.10317993 C61.86757193 -0.10197903 69.45576069 -0.12307224 77.04416209 -0.15466726 C83.56833901 -0.18085899 90.09242313 -0.191546 96.61665219 -0.19026911 C100.50920861 -0.18976028 104.40151204 -0.19539963 108.29401588 -0.21662521 C111.957388 -0.23605641 115.62026709 -0.23609928 119.28365707 -0.22159195 C121.25972647 -0.21851958 123.23579616 -0.23514659 125.21179199 -0.25247192 C133.81207328 -0.19185224 139.07746509 0.97654276 145.84965515 6.51742554 C150.72982049 12.48207206 152.88393344 17.64548343 152.53715515 25.45883179 C151.61403664 31.38492293 149.4553417 36.23765709 144.8691864 40.18930054 C139.69665304 43.7332875 135.75650838 45.38830243 129.43981934 45.41459656 C128.2608609 45.42175186 127.08190247 45.42890717 125.86721802 45.4362793 C124.57211807 45.4389682 123.27701813 45.4416571 121.94267273 45.44442749 C120.56606373 45.45069352 119.18945642 45.45734044 117.81285095 45.46434021 C113.28997472 45.48536975 108.7670982 45.49574282 104.2441864 45.50570679 C102.68574697 45.50975502 101.12730771 45.51387196 99.56886864 45.51805687 C92.24539987 45.53710757 84.92194117 45.55133781 77.59845239 45.55966884 C69.15279842 45.56943564 60.70740692 45.59574091 52.26184541 45.63616973 C45.72922764 45.66636481 39.19668496 45.68114099 32.66399878 45.68444985 C28.76468901 45.68679685 24.86565967 45.69571096 20.96642494 45.72091103 C17.29489372 45.74425589 13.6238263 45.74839959 9.95223999 45.73814964 C7.97136453 45.73742116 5.99051228 45.75646807 4.00973511 45.7762146 C-4.60491925 45.72607571 -9.86710982 44.5673451 -16.65034485 39.01742554 C-21.60210903 32.96526932 -23.62511359 27.85281838 -23.27534485 19.93930054 C-22.24906705 12.62707125 -18.48156203 8.40047402 -12.9980011 3.71273804 C-8.77123233 0.80043926 -5.09007308 0.01664776 0 0 Z " fill="#27262A" transform="translate(1681.9003448486328,785.7325744628906)"/>
<path d="M0 0 C8.58 0 17.16 0 26 0 C34.9467999 11.25339675 34.9467999 11.25339675 37.17578125 16.171875 C39.49494098 21.04391431 42.0864077 25.40876599 45.1875 29.8125 C45.98234661 30.98874282 46.77402094 32.16713557 47.5625 33.34765625 C48.15224609 34.22768311 48.15224609 34.22768311 48.75390625 35.12548828 C51.09514641 38.64744008 53.39142024 42.19850405 55.6875 45.75 C56.11506592 46.41104736 56.54263184 47.07209473 56.9831543 47.75317383 C60.6823802 53.48531402 64.33716686 59.24411936 68 65 C68.33 43.55 68.66 22.1 69 0 C76.59 0 84.18 0 92 0 C92 33.33 92 66.66 92 101 C83.75 101 75.5 101 67 101 C60.37048113 93.11436176 60.37048113 93.11436176 58.953125 89.46875 C57.16825391 85.24275218 54.94430071 81.67891911 52.3125 77.9375 C51.48372468 76.71052534 50.65835565 75.48124479 49.8359375 74.25 C49.39217773 73.58742188 48.94841797 72.92484375 48.49121094 72.2421875 C45.44375662 67.6600296 42.44265786 63.04745942 39.4375 58.4375 C38.83655518 57.51638428 38.23561035 56.59526855 37.61645508 55.64624023 C32.71201932 48.1177161 27.85901104 40.55846163 23 33 C22.67 55.44 22.34 77.88 22 101 C14.74 101 7.48 101 0 101 C0 67.67 0 34.34 0 0 Z " fill="#F9F9F9" transform="translate(957,587)"/>
<path d="M0 0 C25 0 25 0 29.9375 4.5 C31.01834165 6.63736437 32.03564977 8.80761003 33 11 C34.45164035 13.3781608 35.92827649 15.72215823 37.4375 18.0625 C38.27907363 19.42210784 39.1188012 20.78285947 39.95703125 22.14453125 C43.74959416 28.24209631 47.690862 34.24331941 51.625 40.25 C52.32939209 41.32644775 53.03378418 42.40289551 53.75952148 43.51196289 C58.4711575 50.69900856 63.23261361 57.84892042 68 65 C68.33 43.55 68.66 22.1 69 0 C76.26 0 83.52 0 91 0 C91 33.33 91 66.66 91 101 C67 101 67 101 61.60546875 96.33203125 C59.81030273 93.22705078 59.81030273 93.22705078 58.1875 89.8125 C57.54371164 88.64024834 56.88985583 87.47347768 56.22680664 86.31201172 C54.82992676 83.85027413 53.47710078 81.37067162 52.14648438 78.87255859 C48.87264414 72.83891912 44.99833047 67.18634231 41.18130493 61.48788452 C39.21286873 58.53969768 37.27810773 55.56963321 35.33984375 52.6015625 C31.26377251 46.37534715 27.128542 40.19281299 23 34 C22.67 56.11 22.34 78.22 22 101 C14.74 101 7.48 101 0 101 C0 67.67 0 34.34 0 0 Z " fill="#FBFBFB" transform="translate(482,587)"/>
<path d="M0 0 C25 0 25 0 29.9375 4.5 C31.01834165 6.63736437 32.03564977 8.80761003 33 11 C34.45164035 13.3781608 35.92827649 15.72215823 37.4375 18.0625 C38.27907363 19.42210784 39.1188012 20.78285947 39.95703125 22.14453125 C43.74959416 28.24209631 47.690862 34.24331941 51.625 40.25 C52.32939209 41.32644775 53.03378418 42.40289551 53.75952148 43.51196289 C58.4711575 50.69900856 63.23261361 57.84892042 68 65 C68.33 43.55 68.66 22.1 69 0 C76.26 0 83.52 0 91 0 C91 33.33 91 66.66 91 101 C67 101 67 101 61.60546875 96.33203125 C59.81030273 93.22705078 59.81030273 93.22705078 58.1875 89.8125 C57.54371164 88.64024834 56.88985583 87.47347768 56.22680664 86.31201172 C54.82992676 83.85027413 53.47710078 81.37067162 52.14648438 78.87255859 C48.87264414 72.83891912 44.99833047 67.18634231 41.18130493 61.48788452 C39.21286873 58.53969768 37.27810773 55.56963321 35.33984375 52.6015625 C31.26377251 46.37534715 27.128542 40.19281299 23 34 C22.67 56.11 22.34 78.22 22 101 C14.74 101 7.48 101 0 101 C0 67.67 0 34.34 0 0 Z " fill="#FBFBFB" transform="translate(946,471)"/>
<path d="M0 0 C25 0 25 0 29.9375 4.5 C31.01834165 6.63736437 32.03564977 8.80761003 33 11 C34.45164035 13.3781608 35.92827649 15.72215823 37.4375 18.0625 C38.27907363 19.42210784 39.1188012 20.78285947 39.95703125 22.14453125 C43.74959416 28.24209631 47.690862 34.24331941 51.625 40.25 C52.32939209 41.32644775 53.03378418 42.40289551 53.75952148 43.51196289 C58.4711575 50.69900856 63.23261361 57.84892042 68 65 C68.33 43.55 68.66 22.1 69 0 C76.26 0 83.52 0 91 0 C91 33.33 91 66.66 91 101 C67 101 67 101 61.60546875 96.33203125 C59.81030273 93.22705078 59.81030273 93.22705078 58.1875 89.8125 C57.54371164 88.64024834 56.88985583 87.47347768 56.22680664 86.31201172 C54.82992676 83.85027413 53.47710078 81.37067162 52.14648438 78.87255859 C48.87264414 72.83891912 44.99833047 67.18634231 41.18130493 61.48788452 C39.21286873 58.53969768 37.27810773 55.56963321 35.33984375 52.6015625 C31.26377251 46.37534715 27.128542 40.19281299 23 34 C22.67 56.11 22.34 78.22 22 101 C14.74 101 7.48 101 0 101 C0 67.67 0 34.34 0 0 Z " fill="#FBFBFB" transform="translate(801,471)"/>
<path d="M0 0 C57.70199501 0 57.70199501 0 67.34375 8.19140625 C73.26461021 14.65687389 74.72970226 21.33563975 74.35546875 29.953125 C73.8756441 34.06590772 72.97661553 37.36816984 71 41 C70.52433594 41.90492188 70.52433594 41.90492188 70.0390625 42.828125 C67.0702428 47.67088053 63.13021162 50.04418705 58.20703125 52.73828125 C55.89035523 53.93435574 55.89035523 53.93435574 54 56 C54.46148437 56.33128906 54.92296875 56.66257812 55.3984375 57.00390625 C62.67709528 62.74340122 67.13120064 70.2708652 72 78 C73.07731812 79.68671355 74.15547468 81.37289181 75.234375 83.05859375 C77.34015015 86.36159892 79.44354319 89.66600817 81.53125 92.98046875 C81.95986328 93.66004639 82.38847656 94.33962402 82.83007812 95.03979492 C83.99102175 96.98495693 85.01411367 98.96134417 86 101 C63.08123692 103.84147004 63.08123692 103.84147004 56.78662109 99.45898438 C53.19822591 95.32112577 51.11135282 90.43780946 49.04882812 85.40771484 C47.45335894 81.74511775 45.33132971 78.50562368 43.125 75.1875 C42.44695312 74.10855469 41.76890625 73.02960938 41.0703125 71.91796875 C35.65036012 64.2789038 34.2399566 64.04799132 24 62 C24 74.87 24 87.74 24 101 C16.08 101 8.16 101 0 101 C0 67.67 0 34.34 0 0 Z " fill="#FAFAFA" transform="translate(182,587)"/>
<path d="M0 0 C57.70199501 0 57.70199501 0 67.34375 8.19140625 C73.26461021 14.65687389 74.72970226 21.33563975 74.35546875 29.953125 C73.8756441 34.06590772 72.97661553 37.36816984 71 41 C70.52433594 41.90492188 70.52433594 41.90492188 70.0390625 42.828125 C67.0702428 47.67088053 63.13021162 50.04418705 58.20703125 52.73828125 C55.89035523 53.93435574 55.89035523 53.93435574 54 56 C54.46148437 56.33128906 54.92296875 56.66257812 55.3984375 57.00390625 C62.67709528 62.74340122 67.13120064 70.2708652 72 78 C73.07731812 79.68671355 74.15547468 81.37289181 75.234375 83.05859375 C77.34015015 86.36159892 79.44354319 89.66600817 81.53125 92.98046875 C81.95986328 93.66004639 82.38847656 94.33962402 82.83007812 95.03979492 C83.99102175 96.98495693 85.01411367 98.96134417 86 101 C63.08123692 103.84147004 63.08123692 103.84147004 56.78662109 99.45898438 C53.19822591 95.32112577 51.11135282 90.43780946 49.04882812 85.40771484 C47.45335894 81.74511775 45.33132971 78.50562368 43.125 75.1875 C42.44695312 74.10855469 41.76890625 73.02960938 41.0703125 71.91796875 C35.65036012 64.2789038 34.2399566 64.04799132 24 62 C24 74.87 24 87.74 24 101 C16.08 101 8.16 101 0 101 C0 67.67 0 34.34 0 0 Z " fill="#FAFAFA" transform="translate(423,356)"/>
<path d="M0 0 C0 6.93 0 13.86 0 21 C-4.0219497 20.32967505 -7.70837783 19.56971571 -11.60693359 18.48852539 C-22.33197843 15.56009251 -33.65101749 13.75146992 -44 19 C-51.79214006 24.76907374 -56.86992802 30.39476888 -59 40 C-60.20050854 52.00777708 -59.79892541 63.01602092 -52.25 72.875 C-45.70879745 79.72307379 -39.03920839 80.5041197 -29.78125 81.01953125 C-25.28165843 81.07122821 -25.28165843 81.07122821 -18 80 C-18 73.07 -18 66.14 -18 59 C-24.6 59 -31.2 59 -38 59 C-38 53.06 -38 47.12 -38 41 C-23.81 41 -9.62 41 5 41 C5 58.16 5 75.32 5 93 C-12.42893185 100.92224175 -32.35522496 104.79460375 -51.3125 99.375 C-53.23142308 98.64106926 -55.1301189 97.85115498 -57 97 C-57.95777344 96.5875 -58.91554688 96.175 -59.90234375 95.75 C-71.29590001 90.24858463 -78.57246488 80.71482243 -83 69 C-87.52802396 53.37719098 -86.05986755 36.80723511 -78.8125 22.3125 C-70.95171 9.2908266 -59.49275552 1.19883571 -45 -3 C-30.15461496 -6.37543389 -14.34580259 -4.4140931 0 0 Z " fill="#FBFBFB" transform="translate(1131,473)"/>
<path d="M0 0 C9.24 0 18.48 0 28 0 C32.45374449 10.02092511 32.45374449 10.02092511 33.5 13.9375 C34.44085276 17.27848734 35.54217905 20.4563879 36.875 23.66015625 C39.33529155 29.72823822 41.34112729 35.91754873 43.35546875 42.14453125 C44.77816387 46.48986703 46.27348728 50.76522024 48 55 C50.42593005 60.95030627 52.37870876 67.03372525 54.35546875 73.14453125 C56.02995558 78.2589141 57.8497962 83.25121178 59.95507812 88.20507812 C61.52148939 92.39486227 62.71468628 96.71562093 64 101 C55.42 101 46.84 101 38 101 C34.535 90.605 34.535 90.605 31 80 C13.675 79.505 13.675 79.505 -4 79 C-5.88465908 85.28219693 -7.69874442 91.51185362 -9.3515625 97.84765625 C-10 100 -10 100 -11 101 C-12.85369611 101.08737645 -14.71067541 101.10698153 -16.56640625 101.09765625 C-17.69111328 101.09443359 -18.81582031 101.09121094 -19.97460938 101.08789062 C-21.15861328 101.07951172 -22.34261719 101.07113281 -23.5625 101.0625 C-24.75037109 101.05798828 -25.93824219 101.05347656 -27.16210938 101.04882812 C-30.10812226 101.03699675 -33.05403681 101.02051287 -36 101 C-35.33342569 94.91078864 -33.12470207 89.42558281 -31.01953125 83.71875 C-30.61444336 82.60795578 -30.20935547 81.49716156 -29.79199219 80.35270691 C-28.47056637 76.73326061 -27.1416761 73.11660653 -25.8125 69.5 C-24.9034872 67.01552819 -23.99487921 64.53090823 -23.08666992 62.04614258 C-20.82138589 55.85294393 -18.54967778 49.66212645 -16.27539062 43.472229 C-15.08203341 40.22333455 -13.89023045 36.97387601 -12.69921875 33.72412109 C-10.73966041 28.37759379 -8.77735377 23.03208342 -6.8125 17.6875 C-6.51727448 16.8840918 -6.22204895 16.08068359 -5.9178772 15.25292969 C-5.09897964 13.02617944 -4.27837466 10.80006782 -3.45703125 8.57421875 C-3.00303955 7.34276123 -2.54904785 6.11130371 -2.08129883 4.8425293 C-1 2 -1 2 0 0 Z " fill="#F9F9F9" transform="translate(681,587)"/>
<path d="M0 0 C56.7734375 0 56.7734375 0 67.0859375 9 C74.19870879 16.4321202 74.76195959 24.32102442 74.65820312 34.23754883 C74.22120032 44.28413594 70.88990735 50.48780869 63.6875 57.4375 C51.78657606 67.13675301 39.11246714 67 24 67 C24 78.22 24 89.44 24 101 C16.08 101 8.16 101 0 101 C0 67.67 0 34.34 0 0 Z " fill="#FAFAFA" transform="translate(101,587)"/>
<path d="M0 0 C56.7734375 0 56.7734375 0 67.0859375 9 C74.19870879 16.4321202 74.76195959 24.32102442 74.65820312 34.23754883 C74.22120032 44.28413594 70.88990735 50.48780869 63.6875 57.4375 C51.78657606 67.13675301 39.11246714 67 24 67 C24 78.22 24 89.44 24 101 C16.08 101 8.16 101 0 101 C0 67.67 0 34.34 0 0 Z " fill="#FAFAFA" transform="translate(650,471)"/>
<path d="M0 0 C19.8 0 39.6 0 60 0 C60 6.27 60 12.54 60 19 C48.12 19 36.24 19 24 19 C24 26.26 24 33.52 24 41 C34.89 41 45.78 41 57 41 C57 47.27 57 53.54 57 60 C46.11 60 35.22 60 24 60 C24 67.26 24 74.52 24 82 C36.54 82 49.08 82 62 82 C62 88.27 62 94.54 62 101 C41.54 101 21.08 101 0 101 C0 67.67 0 34.34 0 0 Z " fill="#F8F8F8" transform="translate(731,471)"/>
<path d="M0 0 C19.47 0 38.94 0 59 0 C59 6.27 59 12.54 59 19 C47.45 19 35.9 19 24 19 C24 26.26 24 33.52 24 41 C34.89 41 45.78 41 57 41 C57 47.27 57 53.54 57 60 C46.11 60 35.22 60 24 60 C24 67.26 24 74.52 24 82 C36.54 82 49.08 82 62 82 C62 88.27 62 94.54 62 101 C41.54 101 21.08 101 0 101 C0 67.67 0 34.34 0 0 Z " fill="#F9F9F9" transform="translate(412,587)"/>
<path d="M0 0 C19.47 0 38.94 0 59 0 C59 6.27 59 12.54 59 19 C47.45 19 35.9 19 24 19 C24 26.26 24 33.52 24 41 C34.89 41 45.78 41 57 41 C57 47.27 57 53.54 57 60 C46.11 60 35.22 60 24 60 C24 67.26 24 74.52 24 82 C36.54 82 49.08 82 62 82 C62 88.27 62 94.54 62 101 C41.54 101 21.08 101 0 101 C0 67.67 0 34.34 0 0 Z " fill="#F9F9F9" transform="translate(269,587)"/>
<path d="M0 0 C19.47 0 38.94 0 59 0 C59 6.27 59 12.54 59 19 C47.45 19 35.9 19 24 19 C24 26.26 24 33.52 24 41 C34.89 41 45.78 41 57 41 C57 47.27 57 53.54 57 60 C46.11 60 35.22 60 24 60 C24 67.26 24 74.52 24 82 C36.54 82 49.08 82 62 82 C62 88.27 62 94.54 62 101 C41.54 101 21.08 101 0 101 C0 67.67 0 34.34 0 0 Z " fill="#F9F9F9" transform="translate(446,471)"/>
<path d="M0 0 C1 1 1 1 1.11352539 3.04125977 C1.10567017 4.35308228 1.10567017 4.35308228 1.09765625 5.69140625 C1.09282227 7.10776367 1.09282227 7.10776367 1.08789062 8.55273438 C1.07532227 10.04256836 1.07532227 10.04256836 1.0625 11.5625 C1.05798828 12.55958984 1.05347656 13.55667969 1.04882812 14.58398438 C1.03700007 17.05604849 1.02051849 19.52799518 1 22 C0.05898438 21.65066406 -0.88203125 21.30132813 -1.8515625 20.94140625 C-3.10927474 20.48149655 -4.36709293 20.02187653 -5.625 19.5625 C-7.46964844 18.88380859 -7.46964844 18.88380859 -9.3515625 18.19140625 C-17.80630253 15.43049007 -26.6018116 14.70659279 -35 18 C-38.04826905 20.18850086 -38.86796136 21.22427296 -39.5 24.9375 C-38.86734649 28.81250277 -37.7073045 30.16232771 -35 33 C-32.52004629 34.43888099 -30.15190704 35.68234813 -27.5625 36.875 C-26.12572264 37.56911436 -24.68953255 38.26444553 -23.25390625 38.9609375 C-22.5386377 39.30350586 -21.82336914 39.64607422 -21.08642578 39.99902344 C0.36568589 50.29081584 0.36568589 50.29081584 5 62 C5.46345372 65.11376235 5.52471237 68.16785067 5.5 71.3125 C5.49355469 72.15973633 5.48710937 73.00697266 5.48046875 73.87988281 C5.22109965 82.72232161 2.61690737 87.68712245 -3.6875 93.8125 C-16.12176419 103.94325211 -32.86698589 102.80477969 -48 102 C-53.79780613 101.30487436 -58.79095934 99.60452033 -64 97 C-64 89.41 -64 81.82 -64 74 C-61.855 75.11375 -59.71 76.2275 -57.5 77.375 C-48.09774679 82.10629657 -38.38689091 85.15578534 -27.78125 82.4296875 C-24.71781644 81.19652569 -21.73310921 79.85453282 -20 77 C-19.08115592 73.67291743 -19.08115592 73.67291743 -20 70 C-24.86181412 64.24027236 -31.02319649 61.30856623 -37.875 58.5625 C-48.82632995 53.89956641 -57.64480826 48.87050082 -63.0625 37.8359375 C-65.36244174 30.87861373 -65.30052446 21.82507195 -62.9375 14.875 C-57.46725817 5.12369935 -48.61201366 0.53478263 -38.18261719 -2.53491211 C-26.64316105 -4.99382306 -11.01672989 -4.42043424 0 0 Z " fill="#FBFBFB" transform="translate(398,588)"/>
<path d="M0 0 C19.47 0 38.94 0 59 0 C59 6.27 59 12.54 59 19 C47.12 19 35.24 19 23 19 C23 26.26 23 33.52 23 41 C33.89 41 44.78 41 56 41 C56 47.27 56 53.54 56 60 C45.11 60 34.22 60 23 60 C23 67.26 23 74.52 23 82 C35.54 82 48.08 82 61 82 C61 88.27 61 94.54 61 101 C40.87 101 20.74 101 0 101 C0 67.67 0 34.34 0 0 Z " fill="#FBFBFB" transform="translate(743,356)"/>
<path d="M0 0 C19.47 0 38.94 0 59 0 C59 6.27 59 12.54 59 19 C47.12 19 35.24 19 23 19 C23 26.26 23 33.52 23 41 C33.89 41 44.78 41 56 41 C56 47.27 56 53.54 56 60 C45.11 60 34.22 60 23 60 C23 67.26 23 74.52 23 82 C35.54 82 48.08 82 61 82 C61 88.27 61 94.54 61 101 C40.87 101 20.74 101 0 101 C0 67.67 0 34.34 0 0 Z " fill="#FBFBFB" transform="translate(239,356)"/>
<path d="M0 0 C19.47 0 38.94 0 59 0 C59 6.27 59 12.54 59 19 C47.45 19 35.9 19 24 19 C24 26.26 24 33.52 24 41 C34.56 41 45.12 41 56 41 C56 46.94 56 52.88 56 59 C45.11 59 34.22 59 23 59 C23 66.92 23 74.84 23 83 C35.21 83 47.42 83 60 83 C60 88.94 60 94.88 60 101 C40.2 101 20.4 101 0 101 C0 67.67 0 34.34 0 0 Z " fill="#FCFCFC" transform="translate(510,356)"/>
<path d="M0 0 C0 7.59 0 15.18 0 23 C-6 21 -6 21 -7.95703125 20.1484375 C-16.42305871 16.61944079 -28.48480088 16.10158488 -37.0625 19.5625 C-39.10128478 20.66289826 -39.10128478 20.66289826 -41 22 C-41.70511719 22.46277344 -42.41023438 22.92554688 -43.13671875 23.40234375 C-49.21536107 27.99784229 -52.19473449 33.66246921 -54 41 C-55.28988473 52.5290582 -53.82601459 62.64534712 -47.25 72.4375 C-43.42311512 77.18945884 -38.65753787 79.11415404 -33 81 C-21.0754474 81.76837266 -11.32434588 79.77478196 0 76 C0 82.93 0 89.86 0 97 C-15.83269315 102.91341551 -35.084823 105.55662282 -51.3515625 99.3203125 C-63.9887964 93.02033454 -71.89072145 84.07024745 -77 71 C-77.3609375 70.13503906 -77.721875 69.27007812 -78.09375 68.37890625 C-82.78509003 56.06413866 -80.8595173 38.96842961 -75.78125 27.16796875 C-68.87516272 13.45171208 -57.98693057 3.60203211 -43.4453125 -1.2734375 C-29.61578836 -5.38252934 -13.73543758 -3.70393822 0 0 Z " fill="#F9F9FA" transform="translate(414,357)"/>
<path d="M0 0 C26.73 0 53.46 0 81 0 C81 6.27 81 12.54 81 19 C71.43 19 61.86 19 52 19 C52 46.06 52 73.12 52 101 C44.08 101 36.16 101 28 101 C28 73.94 28 46.88 28 19 C18.76 19 9.52 19 0 19 C0 12.73 0 6.46 0 0 Z " fill="#F8F8F8" transform="translate(579,587)"/>
<path d="M0 0 C26.73 0 53.46 0 81 0 C81 6.27 81 12.54 81 19 C71.43 19 61.86 19 52 19 C52 46.06 52 73.12 52 101 C44.41 101 36.82 101 29 101 C29 73.94 29 46.88 29 19 C19.43 19 9.86 19 0 19 C0 12.73 0 6.46 0 0 Z " fill="#FBFBFB" transform="translate(730,587)"/>
<path d="M0 0 C26.73 0 53.46 0 81 0 C81 5.94 81 11.88 81 18 C71.43 18 61.86 18 52 18 C52 45.39 52 72.78 52 101 C44.41 101 36.82 101 29 101 C29 73.94 29 46.88 29 19 C19.43 19 9.86 19 0 19 C0 12.73 0 6.46 0 0 Z " fill="#FCFCFC" transform="translate(656,356)"/>
<path d="M0 0 C6.7170216 4.04725403 10.73678113 9.60302062 13.04272461 16.99584961 C14.04590592 21.3101602 14.05807893 25.5267276 14 29.9375 C14.01160156 30.81470703 14.02320313 31.69191406 14.03515625 32.59570312 C13.99101693 42.57854696 11.61972917 51.16654302 4.625 58.5 C-2.30456447 63.90506029 -8.77697549 64.25246547 -17.375 63.5 C-24.50801912 61.7197524 -28.62592964 56.55619058 -32.375 50.5 C-33.6535624 47.83515748 -34.50644567 45.34692809 -35.375 42.5 C-35.55675781 41.91992188 -35.73851562 41.33984375 -35.92578125 40.7421875 C-38.1129642 29.82529172 -36.73020661 18.73013231 -30.984375 9.19140625 C-23.93884336 -0.9133694 -11.7927294 -5.25923296 0 0 Z " fill="#1A1A1D" transform="translate(909.375,606.5)"/>
<path d="M0 0 C6.70009496 4.00872489 11.18831229 10.18993687 13.625 17.5 C16.14557835 30.31740908 14.9537552 42.41965695 8.75 54 C3.87240867 59.73834274 -0.56890283 63.05876227 -8.140625 63.75390625 C-14.71292379 64.00986261 -20.126419 63.73053727 -25.375 59.5 C-33.06190053 51.47214824 -35.92058111 44.19366043 -35.75 33.25 C-35.73984863 32.31776611 -35.72969727 31.38553223 -35.71923828 30.42504883 C-35.48614521 20.07770424 -34.08584574 10.99053586 -26.375 3.5 C-18.98374538 -2.62204928 -8.86352555 -3.83799262 0 0 Z " fill="#19191C" transform="translate(602.375,490.5)"/>
<path d="M0 0 C7.92 0 15.84 0 24 0 C24 33.33 24 66.66 24 101 C16.08 101 8.16 101 0 101 C0 67.67 0 34.34 0 0 Z " fill="#F8F8F8" transform="translate(816,587)"/>
<path d="M0 0 C7.92 0 15.84 0 24 0 C24 33.33 24 66.66 24 101 C16.08 101 8.16 101 0 101 C0 67.67 0 34.34 0 0 Z " fill="#F8F8F8" transform="translate(907,471)"/>
<path d="M0 0 C6.1711515 3.61453159 10.44221546 8.48549305 12.625 15.3125 C13.74306844 22.22796038 12.72245611 27.96324516 9.32421875 34.078125 C5.82433317 38.68027339 1.05446075 41.50267975 -4.375 43.3125 C-13.33689487 44.19565927 -19.19096093 42.73580469 -26.125 37.0625 C-31.07676418 31.01034378 -33.09976874 25.89789284 -32.75 17.984375 C-31.72372221 10.67214571 -27.95621718 6.44554848 -22.47265625 1.7578125 C-15.83997577 -2.81219081 -7.31256819 -3.42733272 0 0 Z " fill="#242428" transform="translate(1875.375,787.6875)"/>
<path d="M0 0 C17.37837838 0 17.37837838 0 23 4 C26.95212878 9.36162926 26.78384275 14.57248945 26 21 C23.86210085 25.51334264 21.547377 27.94285326 17 30 C11.25796606 31.50386603 6.14294559 31 0 31 C0 20.77 0 10.54 0 0 Z " fill="#1A1A1D" transform="translate(125,605)"/>
<path d="M0 0 C17.37837838 0 17.37837838 0 23 4 C26.95212878 9.36162926 26.78384275 14.57248945 26 21 C23.86210085 25.51334264 21.547377 27.94285326 17 30 C11.25796606 31.50386603 6.14294559 31 0 31 C0 20.77 0 10.54 0 0 Z " fill="#1A1A1D" transform="translate(674,489)"/>
<path d="M0 0 C16.32142857 0 16.32142857 0 22 3 C25.03384263 6.15406483 25.45602514 8.55446973 25.5 12.875 C25.38992934 16.64033381 25.28772255 19.49416942 23 22.5625 C15.51480833 28.64421823 10.243756 28 0 28 C0 18.76 0 9.52 0 0 Z " fill="#1B1B1E" transform="translate(206,604)"/>
<path d="M0 0 C16.32142857 0 16.32142857 0 22 3 C25.03384263 6.15406483 25.45602514 8.55446973 25.5 12.875 C25.38992934 16.64033381 25.28772255 19.49416942 23 22.5625 C15.51480833 28.64421823 10.243756 28 0 28 C0 18.76 0 9.52 0 0 Z " fill="#1B1B1E" transform="translate(447,373)"/>
<path d="M0 0 C0.33 0 0.66 0 1 0 C1.27070312 1.28519531 1.54140625 2.57039062 1.8203125 3.89453125 C2.934678 8.90525909 4.36440166 13.78405745 5.875 18.6875 C6.40698794 20.43597356 6.93823329 22.18467323 7.46875 23.93359375 C7.72785156 24.78679199 7.98695313 25.63999023 8.25390625 26.51904297 C9.90046274 31.99427435 11.44511659 37.49810487 13 43 C4.75 43 -3.5 43 -12 43 C-8.75115843 30.00463372 -8.75115843 30.00463372 -6.72753906 24.89941406 C-5.40816004 21.45486078 -4.40623304 17.91429365 -3.375 14.375 C-3.1584375 13.65054688 -2.941875 12.92609375 -2.71875 12.1796875 C-1.53270353 8.13834398 -0.59344175 4.18046746 0 0 Z " fill="#1E1E21" transform="translate(694,605)"/>
<path d="M0 0 C7.26377011 10.89565516 9.85776375 25.43105501 13 38 C4.75 38 -3.5 38 -12 38 C-10.906875 34.205 -9.81375 30.41 -8.6875 26.5 C-8.34936279 25.31986328 -8.01122559 24.13972656 -7.6628418 22.92382812 C-5.99593752 17.17434287 -4.17931444 11.57499044 -2 6 C-1.32264783 4.00359361 -0.65161065 2.00495586 0 0 Z " fill="#1C1C1F" transform="translate(620,379)"/>
<path d="M0 0 C3.52321907 0.86318867 5.20098615 2.74024075 7.34375 5.57421875 C7.67375 5.90421875 8.00375 6.23421875 8.34375 6.57421875 C8.90976461 11.0652199 8.93614688 14.54300936 6.65625 18.51171875 C3.01282369 21.76126114 0.74631807 22.59926461 -4.15625 22.51171875 C-8.30196647 21.40125898 -9.91127616 19.80359974 -12.65625 16.57421875 C-12.98625 16.24421875 -13.31625 15.91421875 -13.65625 15.57421875 C-14.24538805 10.69278922 -14.21764015 7.62726431 -11.28125 3.57421875 C-7.87456925 0.04615983 -4.77776663 -0.32379443 0 0 Z " fill="#EEEEEF" transform="translate(103.65625,43.42578125)"/>
<path d="M0 0 C1.65 0 3.3 0 5 0 C5.33 4.29 5.66 8.58 6 13 C6.33 12.67 6.66 12.34 7 12 C14.38997226 11.5232276 14.38997226 11.5232276 16.60717773 13.25610352 C18.33909121 15.4245624 18.35136376 16.48590313 18.29296875 19.23046875 C18.28330078 20.03291016 18.27363281 20.83535156 18.26367188 21.66210938 C18.23853516 22.49548828 18.21339844 23.32886719 18.1875 24.1875 C18.16719727 25.4549707 18.16719727 25.4549707 18.14648438 26.74804688 C18.11115799 28.83230384 18.05735139 30.91623277 18 33 C16.35 33 14.7 33 13 33 C12.67 27.72 12.34 22.44 12 17 C10.35 16.67 8.7 16.34 7 16 C4.94077598 18.05922402 5.58572421 22.21708124 5.4375 25.0625 C5.39431641 25.82111328 5.35113281 26.57972656 5.30664062 27.36132812 C5.20026367 29.24065438 5.09960066 31.12030244 5 33 C3.35 33 1.7 33 0 33 C0 22.11 0 11.22 0 0 Z " fill="#EBEBEC" transform="translate(138,32)"/>
<path d="M0 0 C2.625 2.5 2.625 2.5 4 5 C1.6875 6.125 1.6875 6.125 -1 7 C-1.99 6.34 -2.98 5.68 -4 5 C-7.31086259 5.28274138 -7.31086259 5.28274138 -10 7 C-10.04092937 9.33297433 -10.04241723 11.66705225 -10 14 C-7.7193293 15.21297649 -7.7193293 15.21297649 -5 16 C-3.65022151 15.36729133 -2.31647119 14.69937532 -1 14 C1.75 14.375 1.75 14.375 4 15 C3.00456145 17.624338 2.02807645 18.97605244 -0.125 20.8125 C-4.04940767 22.43345099 -6.99830178 22.42802537 -11 21 C-14.19877975 18.33435021 -15.63661405 16.82979295 -16.44140625 12.77734375 C-16.65311405 8.68660267 -16.32946868 6.5271499 -14.125 3 C-10.01406351 -0.86911669 -5.43399843 -0.82386428 0 0 Z " fill="#EEEEEE" transform="translate(131,44)"/>
<path d="M0 0 C1.8871875 0.00773437 1.8871875 0.00773437 3.8125 0.015625 C5.070625 0.01046875 6.32875 0.0053125 7.625 0 C10.8125 0.265625 10.8125 0.265625 12.8125 2.265625 C13.4725 1.605625 14.1325 0.945625 14.8125 0.265625 C17.4375 0.140625 17.4375 0.140625 19.8125 0.265625 C18.4925 1.585625 17.1725 2.905625 15.8125 4.265625 C17.4625 4.925625 19.1125 5.585625 20.8125 6.265625 C20.4825 7.585625 20.1525 8.905625 19.8125 10.265625 C14.14583333 10.265625 8.47916667 10.265625 2.8125 10.265625 C1.2965625 10.3275 1.2965625 10.3275 -0.25 10.390625 C-3.1875 10.265625 -3.1875 10.265625 -5.1875 8.265625 C-5.4375 5.265625 -5.4375 5.265625 -5.1875 2.265625 C-3.1875 0.265625 -3.1875 0.265625 0 0 Z " fill="#1D1E25" transform="translate(933.1875,45.734375)"/>
<path d="M0 0 C2.4375 1.5 2.4375 1.5 4 4 C4.18826158 6.97688617 3.720648 9.02132161 3 12 C-0.71499122 14.47666082 -2.60907888 14.54886514 -7 14 C-9 11.9375 -9 11.9375 -10 9 C-9.875 5.3125 -9.875 5.3125 -9 2 C-5.50875983 -0.32749345 -4.10777749 -0.50299316 0 0 Z " fill="#1D1C23" transform="translate(1010,42)"/>
<path d="M0 0 C1.5159375 0.0309375 1.5159375 0.0309375 3.0625 0.0625 C4.56307859 0.0625 6.06379362 0.01243532 7.5625 -0.0625 C10.0625 0.0625 10.0625 0.0625 12.0625 2.0625 C12.3125 4.5625 12.3125 4.5625 12.0625 7.0625 C10.0625 9.0625 10.0625 9.0625 7.5625 9.1875 C6.7375 9.14625 5.9125 9.105 5.0625 9.0625 C3.39531258 9.0625 1.72824209 9.11809408 0.0625 9.1875 C-2.9375 9.0625 -2.9375 9.0625 -4.9375 7.0625 C-4.22601175 0.08991514 -4.22601175 0.08991514 0 0 Z " fill="#7C8483" transform="translate(262.9375,805.9375)"/>
<path d="M0 0 C1.875 1.125 1.875 1.125 3 3 C3.42454541 6.32560568 3.31414524 8.33680449 1.875 11.375 C0 13 0 13 -3 13.4375 C-6 13 -6 13 -7.875 11.9375 C-9.64273274 8.8930714 -9.36823916 6.4368988 -9 3 C-6.84332735 -0.71426957 -4.0099826 -0.50124783 0 0 Z " fill="#5D5F5E" transform="translate(1130,802)"/>
<path d="M0 0 C12.375 0 12.375 0 16 1 C15.01 1 14.02 1 13 1 C13.680625 1.5775 14.36125 2.155 15.0625 2.75 C16.0215625 3.86375 16.0215625 3.86375 17 5 C16.62109375 7.140625 16.62109375 7.140625 16 9 C10.66666667 9 5.33333333 9 0 9 C0 6.03 0 3.06 0 0 Z " fill="#9B9896" transform="translate(318,806)"/>
<path d="M0 0 C1.8125 1.125 1.8125 1.125 3 3 C3.42478586 7.07794425 3.31282587 8.53076119 1 12 C-1.875 12.9375 -1.875 12.9375 -5 13 C-7.4375 11.5 -7.4375 11.5 -9 9 C-8.9375 5.375 -8.9375 5.375 -8 2 C-4.76746204 -0.15502531 -3.74849077 -0.46856135 0 0 Z " fill="#222225" transform="translate(104,48)"/>
<path d="M0 0 C0.66 0 1.32 0 2 0 C2 4.62 2 9.24 2 14 C-1.66666667 14 -5.33333333 14 -9 14 C-9 11.36 -9 8.72 -9 6 C-4.545 5.505 -4.545 5.505 0 5 C0 3.35 0 1.7 0 0 Z " fill="#A8BCB4" transform="translate(198,801)"/>
<path d="M0 0 C0.33 0.99 0.66 1.98 1 3 C1.99 3.33 2.98 3.66 4 4 C3.01 4 2.02 4 1 4 C1 6.64 1 9.28 1 12 C1.99 12.33 2.98 12.66 4 13 C3.030625 12.814375 2.06125 12.62875 1.0625 12.4375 C0.051875 12.293125 -0.95875 12.14875 -2 12 C-2.33 12.33 -2.66 12.66 -3 13 C-5.4375 13.1875 -5.4375 13.1875 -8 13 C-10 11 -10 11 -10.25 8 C-10 5 -10 5 -8 3 C-5.4375 2.875 -5.4375 2.875 -3 3 C-2.67 3 -2.34 3 -2 3 C-1.34 3 -0.68 3 0 3 C0 2.01 0 1.02 0 0 Z " fill="#595452" transform="translate(1803,43)"/>
<path d="M0 0 C0.33 0.99 0.66 1.98 1 3 C2.96128755 3.8237956 2.96128755 3.8237956 5 4 C5.33 3.67 5.66 3.34 6 3 C7.66617115 2.95936168 9.33388095 2.957279 11 3 C11 3.66 11 4.32 11 5 C10.01 5.66 9.02 6.32 8 7 C8.99 7.66 9.98 8.32 11 9 C10.67 10.32 10.34 11.64 10 13 C6.7 13 3.4 13 0 13 C0 10.03 0 7.06 0 4 C-0.66 3.67 -1.32 3.34 -2 3 C-1.34 3 -0.68 3 0 3 C0 2.01 0 1.02 0 0 Z " fill="#1E2029" transform="translate(1303,43)"/>
<path d="M0 0 C1.134375 0.020625 2.26875 0.04125 3.4375 0.0625 C3.49136629 2.18722576 3.53023071 4.31233652 3.5625 6.4375 C3.58570313 7.62085938 3.60890625 8.80421875 3.6328125 10.0234375 C3.4375 13.0625 3.4375 13.0625 1.4375 15.0625 C-1.6875 15.1875 -1.6875 15.1875 -4.5625 15.0625 C-4.2325 14.4025 -3.9025 13.7425 -3.5625 13.0625 C-1 12.4375 -1 12.4375 1.4375 12.0625 C1.4375 11.4025 1.4375 10.7425 1.4375 10.0625 C0.65375 10.10375 -0.13 10.145 -0.9375 10.1875 C-3.5625 10.0625 -3.5625 10.0625 -5.5625 8.0625 C-4.86274661 0.08531134 -4.86274661 0.08531134 0 0 Z " fill="#C7D7D1" transform="translate(1284.5625,45.9375)"/>
<path d="M0 0 C0.66 0 1.32 0 2 0 C2.33 1.65 2.66 3.3 3 5 C3.804375 4.979375 4.60875 4.95875 5.4375 4.9375 C8 5 8 5 9 6 C9.1875 9.4375 9.1875 9.4375 9 13 C8.34 13.66 7.68 14.32 7 15 C4.69 15 2.38 15 0 15 C0 10.05 0 5.1 0 0 Z " fill="#A2C9C8" transform="translate(1141,41)"/>
<path d="M0 0 C2 1 2 1 4 4 C4.66 2.68 5.32 1.36 6 0 C12.15234375 -0.09765625 12.15234375 -0.09765625 14 0 C15 1 15 1 15.09765625 2.84765625 C15.04882812 5.92382812 15.04882812 5.92382812 15 9 C13.02 9 11.04 9 9 9 C8.34 7.68 7.68 6.36 7 5 C6.34 6.32 5.68 7.64 5 9 C4.01 8.67 3.02 8.34 2 8 C0.5522078 5.10441559 0 3.25811062 0 0 Z " fill="#929A98" transform="translate(224,806)"/>
<path d="M0 0 C0.66 0 1.32 0 2 0 C2.66 2.97 3.32 5.94 4 9 C4.66 9 5.32 9 6 9 C6.66 6.03 7.32 3.06 8 0 C8.66 0 9.32 0 10 0 C10.99 2.64 11.98 5.28 13 8 C13.99 5.36 14.98 2.72 16 0 C17.21065165 3.63195496 16.62784815 5.06531629 15.5625 8.6875 C15.27503906 9.68136719 14.98757813 10.67523438 14.69140625 11.69921875 C14.46324219 12.45847656 14.23507812 13.21773437 14 14 C13.34 14 12.68 14 12 14 C11.34 11.36 10.68 8.72 10 6 C9.34 6 8.68 6 8 6 C7.855625 6.94875 7.71125 7.8975 7.5625 8.875 C7 12 7 12 6 14 C5.34 14 4.68 14 4 14 C3.32968281 12.0429132 2.66385317 10.08428887 2 8.125 C1.62875 7.03445312 1.2575 5.94390625 0.875 4.8203125 C0 2 0 2 0 0 Z " fill="#B6C5B7" transform="translate(1038,42)"/>
<path d="M0 0 C3 0.25 3 0.25 5 2.25 C5.25 5.25 5.25 5.25 5 8.25 C3 10.25 3 10.25 0 10.5 C-3 10.25 -3 10.25 -5 8.25 C-5.25 5.25 -5.25 5.25 -5 2.25 C-3 0.25 -3 0.25 0 0 Z " fill="#6F7270" transform="translate(1157,45.75)"/>
<path d="M0 0 C3 0.25 3 0.25 5 2.25 C5.25 5.25 5.25 5.25 5 8.25 C3 10.25 3 10.25 0 10.5 C-3 10.25 -3 10.25 -5 8.25 C-5.25 5.25 -5.25 5.25 -5 2.25 C-3 0.25 -3 0.25 0 0 Z " fill="#6F7270" transform="translate(1061,45.75)"/>
<path d="M0 0 C0.66 0 1.32 0 2 0 C2 1.65 2 3.3 2 5 C2.78375 4.95875 3.5675 4.9175 4.375 4.875 C7 5 7 5 9 7 C9.25 9.5 9.25 9.5 9 12 C8.34 12.66 7.68 13.32 7 14 C4.69 14 2.38 14 0 14 C0 9.38 0 4.76 0 0 Z " fill="#9CBABE" transform="translate(146,801)"/>
<path d="M0 0 C2 2 2 2 2.25 5 C2 8 2 8 0 10 C-3.625 9.625 -3.625 9.625 -7 9 C-8.33157895 3.55263158 -8.33157895 3.55263158 -6.875 1.125 C-4.40522151 -0.3568671 -2.83386167 -0.3633156 0 0 Z " fill="#666D74" transform="translate(1762,46)"/>
<path d="M0 0 C1.32 0 2.64 0 4 0 C4 6.93 4 13.86 4 21 C2.68 21 1.36 21 0 21 C0 14.07 0 7.14 0 0 Z " fill="#FFFFFF" transform="translate(161,44)"/>
<path d="M0 0 C3 0.25 3 0.25 5 2.25 C4.42307692 8.82692308 4.42307692 8.82692308 3 10.25 C0.0625 10.4375 0.0625 10.4375 -3 10.25 C-5 8.25 -5 8.25 -5.25 5.25 C-4.90584825 1.120179 -4.129821 0.34415175 0 0 Z " fill="#595A5A" transform="translate(933,45.75)"/>
<path d="M0 0 C3.375 -0.125 3.375 -0.125 7 0 C7.66 0.66 8.32 1.32 9 2 C8.43181818 7.56818182 8.43181818 7.56818182 7 9 C5.33382885 9.04063832 3.66611905 9.042721 2 9 C2 10.32 2 11.64 2 13 C1.34 13 0.68 13 0 13 C0 8.71 0 4.42 0 0 Z " fill="#BDC1A8" transform="translate(1050,806)"/>
<path d="M0 0 C2.33294775 -0.04241723 4.66702567 -0.04092937 7 0 C8 1 8 1 8.1875 3.9375 C8 7 8 7 6 9 C3.375 9.125 3.375 9.125 1 9 C0.67 10.32 0.34 11.64 0 13 C0 8.71 0 4.42 0 0 Z " fill="#D0D7C2" transform="translate(128,806)"/>
<path d="M0 0 C1.98 0 3.96 0 6 0 C8 2 8 2 8.25 4.5 C8 7 8 7 6 9 C3.375 9.125 3.375 9.125 1 9 C0.67 10.32 0.34 11.64 0 13 C0 8.71 0 4.42 0 0 Z " fill="#C9CFBD" transform="translate(291,806)"/>
<path d="M0 0 C1.98 0 3.96 0 6 0 C8 2 8 2 8.25 4.5 C8 7 8 7 6 9 C3.375 9.125 3.375 9.125 1 9 C0.67 10.32 0.34 11.64 0 13 C0 8.71 0 4.42 0 0 Z " fill="#C9CFBD" transform="translate(207,806)"/>
<path d="M0 0 C0.33 0.99 0.66 1.98 1 3 C1.99 3.33 2.98 3.66 4 4 C3.34 4 2.68 4 2 4 C2 6.31 2 8.62 2 11 C2.66 11.33 3.32 11.66 4 12 C3.195625 11.814375 2.39125 11.62875 1.5625 11.4375 C0.716875 11.293125 -0.12875 11.14875 -1 11 C-1.33 11.33 -1.66 11.66 -2 12 C-3.66617115 12.04063832 -5.33388095 12.042721 -7 12 C-5.68 11.67 -4.36 11.34 -3 11 C-3.680625 10.4225 -4.36125 9.845 -5.0625 9.25 C-5.701875 8.5075 -6.34125 7.765 -7 7 C-6.75 4.75 -6.75 4.75 -6 3 C-4.02 3 -2.04 3 0 3 C0 2.01 0 1.02 0 0 Z " fill="#776D66" transform="translate(1041,803)"/>
<path d="M0 0 C1 1 1 1 1.125 4.5 C1 8 1 8 0 9 C-2.9375 9.25 -2.9375 9.25 -6 9 C-8 6 -8 6 -7.75 3.375 C-7.5025 2.59125 -7.255 1.8075 -7 1 C-4.51588385 -0.24205807 -2.74800896 -0.14092354 0 0 Z " fill="#696F73" transform="translate(972,806)"/>
<path d="M0 0 C1 1 1 1 1.125 4.5 C1 8 1 8 0 9 C-2.9375 9.25 -2.9375 9.25 -6 9 C-8 6 -8 6 -7.75 3.375 C-7.5025 2.59125 -7.255 1.8075 -7 1 C-4.51588385 -0.24205807 -2.74800896 -0.14092354 0 0 Z " fill="#696F73" transform="translate(115,806)"/>
<path d="M0 0 C3 0.125 3 0.125 4 1.125 C4.125 4.625 4.125 4.625 4 8.125 C3 9.125 3 9.125 0 9.25 C-3 9.125 -3 9.125 -4 8.125 C-4.125 4.625 -4.125 4.625 -4 1.125 C-3 0.125 -3 0.125 0 0 Z " fill="#6E706E" transform="translate(1098,805.875)"/>
<path d="M0 0 C0.99 0 1.98 0 3 0 C3.70133599 1.57725347 4.385583 3.16211333 5.0625 4.75 C5.44535156 5.63171875 5.82820313 6.5134375 6.22265625 7.421875 C7.04600008 10.15256309 6.9773992 11.36901347 6 14 C5.67 12.68 5.34 11.36 5 10 C2.69 10 0.38 10 -2 10 C-2.33 11.32 -2.66 12.64 -3 14 C-4.25955231 10.22134307 -3.48087189 8.96588214 -2.0625 5.3125 C-1.68222656 4.31863281 -1.30195312 3.32476562 -0.91015625 2.30078125 C-0.60980469 1.54152344 -0.30945312 0.78226563 0 0 Z " fill="#C2CEC5" transform="translate(1132,42)"/>
<path d="M0 0 C2.33294775 -0.04241723 4.66702567 -0.04092937 7 0 C8 1 8 1 8.09765625 2.84765625 C8.04882812 5.92382812 8.04882812 5.92382812 8 9 C7.34 9 6.68 9 6 9 C5.67 8.01 5.34 7.02 5 6 C4.16855469 6.86625 4.16855469 6.86625 3.3203125 7.75 C2.23363281 8.86375 2.23363281 8.86375 1.125 10 C0.40570312 10.7425 -0.31359375 11.485 -1.0546875 12.25 C-3 14 -3 14 -5 14 C-3.34908222 9.70761377 -0.26245434 7.1206085 3 4 C2.01 3.67 1.02 3.34 0 3 C0 2.01 0 1.02 0 0 Z " fill="#E2E2E2" transform="translate(1864,802)"/>
<path d="M0 0 C1.4540625 0.0309375 1.4540625 0.0309375 2.9375 0.0625 C2.9375 3.0325 2.9375 6.0025 2.9375 9.0625 C0.0625 9.1875 0.0625 9.1875 -3.0625 9.0625 C-3.7225 8.4025 -4.3825 7.7425 -5.0625 7.0625 C-4.35089733 0.08879382 -4.35089733 0.08879382 0 0 Z " fill="#5C5F5D" transform="translate(1072.0625,805.9375)"/>
<path d="M0 0 C2.4375 1.5 2.4375 1.5 4 4 C4.18826158 6.97688617 3.720648 9.02132161 3 12 C-0.71499122 14.47666082 -2.60907888 14.54886514 -7 14 C-9 11.9375 -9 11.9375 -10 9 C-9.875 5.3125 -9.875 5.3125 -9 2 C-5.50875983 -0.32749345 -4.10777749 -0.50299316 0 0 Z M-6.75 2.125 C-8.57455806 4.8618371 -8.40186757 6.78505943 -8 10 C-7.01951062 12.06402685 -7.01951062 12.06402685 -5 13 C-1.88006394 12.92457659 -1.88006394 12.92457659 1 12 C2.52150158 8.95699684 2.23899393 6.345915 2 3 C-1.19240645 0.87172903 -3.28774614 -0.10073462 -6.75 2.125 Z " fill="#D1D3C5" transform="translate(1010,42)"/>
<path d="M0 0 C4.55555556 0.55555556 4.55555556 0.55555556 6 2 C6.1875 4.4375 6.1875 4.4375 6 7 C5.34 7.66 4.68 8.32 4 9 C-0.55555556 8.44444444 -0.55555556 8.44444444 -2 7 C-2.1875 4.5625 -2.1875 4.5625 -2 2 C-1.34 1.34 -0.68 0.68 0 0 Z " fill="#1B1821" transform="translate(1772,803)"/>
<path d="M0 0 C0.66 0 1.32 0 2 0 C2.33 3.63 2.66 7.26 3 11 C4.32 11.33 5.64 11.66 7 12 C8.73956658 10.26043342 8.37190386 7.8063378 8.5625 5.4375 C8.64628906 4.42558594 8.73007813 3.41367187 8.81640625 2.37109375 C8.87699219 1.58863281 8.93757813 0.80617187 9 0 C9.66 0 10.32 0 11 0 C11.08114106 1.77007714 11.13925505 3.54122098 11.1875 5.3125 C11.22230469 6.29863281 11.25710938 7.28476562 11.29296875 8.30078125 C11 11 11 11 9.6796875 12.83203125 C7.08452771 14.63657259 5.06249332 14.39095659 2 14 C-0.28062828 10.57905758 -0.21925007 9.31812778 -0.125 5.3125 C-0.10695313 4.31863281 -0.08890625 3.32476562 -0.0703125 2.30078125 C-0.04710937 1.54152344 -0.02390625 0.78226563 0 0 Z " fill="#AABEA8" transform="translate(1186,42)"/>
<path d="M0 0 C1.99954746 -0.04254356 4.00041636 -0.04080783 6 0 C7 1 7 1 7.09765625 3.06640625 C7.08605469 3.89011719 7.07445312 4.71382812 7.0625 5.5625 C7.05347656 6.38878906 7.04445313 7.21507812 7.03515625 8.06640625 C7.02355469 8.70449219 7.01195312 9.34257813 7 10 C4.69 10 2.38 10 0 10 C-0.33 8.35 -0.66 6.7 -1 5 C0.98 4.67 2.96 4.34 5 4 C4.67 3.34 4.34 2.68 4 2 C2.68 2 1.36 2 0 2 C0 1.34 0 0.68 0 0 Z " fill="#A0A099" transform="translate(1784,46)"/>
<path d="M0 0 C2.0625 0.4375 2.0625 0.4375 4 1 C3.01 1 2.02 1 1 1 C1.680625 1.5775 2.36125 2.155 3.0625 2.75 C3.701875 3.4925 4.34125 4.235 5 5 C4.75 7.25 4.75 7.25 4 9 C2.35 9 0.7 9 -1 9 C-1 8.34 -1 7.68 -1 7 C-2.98 7.33 -4.96 7.66 -7 8 C-7.33 7.01 -7.66 6.02 -8 5 C-6.02 5 -4.04 5 -2 5 C-1.855625 4.360625 -1.71125 3.72125 -1.5625 3.0625 C-1 1 -1 1 0 0 Z " fill="#686968" transform="translate(330,806)"/>
<path d="M0 0 C1.98 0 3.96 0 6 0 C7 1 7 1 7.125 4 C7 7 7 7 6 8 C4.33382885 8.04063832 2.66611905 8.042721 1 8 C1 9.65 1 11.3 1 13 C0.67 13 0.34 13 0 13 C0 8.71 0 4.42 0 0 Z " fill="#D3E6D6" transform="translate(1112,802)"/>
<path d="M0 0 C0.78375 0.04125 1.5675 0.0825 2.375 0.125 C2.705 1.775 3.035 3.425 3.375 5.125 C1.065 5.125 -1.245 5.125 -3.625 5.125 C-2.635 6.61 -2.635 6.61 -1.625 8.125 C0.95880177 8.37530977 0.95880177 8.37530977 3.375 8.125 C3.045 8.785 2.715 9.445 2.375 10.125 C-0.5 10.3125 -0.5 10.3125 -3.625 10.125 C-5.625 7.125 -5.625 7.125 -5.375 4.5625 C-4.336523 1.18744974 -3.59386412 0.17113639 0 0 Z " fill="#979693" transform="translate(901.625,45.875)"/>
<path d="M0 0 C2.5 0.25 2.5 0.25 4.5 2.25 C4.5 3.24 4.5 4.23 4.5 5.25 C2.19 5.25 -0.12 5.25 -2.5 5.25 C-2.17 6.24 -1.84 7.23 -1.5 8.25 C0.48 8.25 2.46 8.25 4.5 8.25 C4.17 8.91 3.84 9.57 3.5 10.25 C0.625 10.375 0.625 10.375 -2.5 10.25 C-4.5 8.25 -4.5 8.25 -4.75 5.25 C-4.43608753 1.48305032 -3.83691092 0.38369109 0 0 Z " fill="#A3A69E" transform="translate(941.5,45.75)"/>
<path d="M0 0 C0.66 0 1.32 0 2 0 C2 1.65 2 3.3 2 5 C2.78375 4.95875 3.5675 4.9175 4.375 4.875 C7 5 7 5 9 7 C9.26991906 9.68839385 9.08737357 12.29141936 9 15 C8.34 15 7.68 15 7 15 C6.67 12.36 6.34 9.72 6 7 C5.01 7 4.02 7 3 7 C2.67 9.64 2.34 12.28 2 15 C1.34 15 0.68 15 0 15 C0 10.05 0 5.1 0 0 Z " fill="#B6BA99" transform="translate(1291,41)"/>
<path d="M0 0 C0.99 0.33 1.98 0.66 3 1 C2.34 1 1.68 1 1 1 C1 2.32 1 3.64 1 5 C2.32 5 3.64 5 5 5 C5 7.97 5 10.94 5 14 C4.34 14 3.68 14 3 14 C3 11.36 3 8.72 3 6 C2.34 6 1.68 6 1 6 C1 8.64 1 11.28 1 14 C0.34 14 -0.32 14 -1 14 C-2.51708428 4.58997722 -2.51708428 4.58997722 0 0 Z " fill="#B4BD97" transform="translate(1022,801)"/>
<path d="M0 0 C1.66611905 -0.042721 3.33382885 -0.04063832 5 0 C6 1 6 1 6.09765625 2.84765625 C6.06510417 4.8984375 6.03255208 6.94921875 6 9 C4.02 9 2.04 9 0 9 C-0.33 7.35 -0.66 5.7 -1 4 C0.65 3.34 2.3 2.68 4 2 C2.35 2 0.7 2 -1 2 C-0.67 1.34 -0.34 0.68 0 0 Z " fill="#9DA099" transform="translate(301,806)"/>
<path d="M0 0 C0.78375 0.04125 1.5675 0.0825 2.375 0.125 C2.705 1.775 3.035 3.425 3.375 5.125 C1.395 5.125 -0.585 5.125 -2.625 5.125 C-2.295 5.785 -1.965 6.445 -1.625 7.125 C0.025 7.125 1.675 7.125 3.375 7.125 C3.045 7.785 2.715 8.445 2.375 9.125 C0 9.25 0 9.25 -2.625 9.125 C-4.625 7.125 -4.625 7.125 -4.875 4.625 C-4.51649553 1.03995533 -3.59522993 0.17120143 0 0 Z " fill="#9FA49E" transform="translate(1011.625,805.875)"/>
<path d="M0 0 C0.78375 0.04125 1.5675 0.0825 2.375 0.125 C2.705 1.775 3.035 3.425 3.375 5.125 C1.395 5.125 -0.585 5.125 -2.625 5.125 C-2.295 5.785 -1.965 6.445 -1.625 7.125 C0.025 7.125 1.675 7.125 3.375 7.125 C3.375 7.785 3.375 8.445 3.375 9.125 C0.5 9.25 0.5 9.25 -2.625 9.125 C-4.625 7.125 -4.625 7.125 -4.875 4.625 C-4.51649553 1.03995533 -3.59522993 0.17120143 0 0 Z " fill="#949FA4" transform="translate(249.625,805.875)"/>
<path d="M0 0 C1.65 0 3.3 0 5 0 C5.75241109 3.65456815 6.40049704 7.31733897 7 11 C6.34 11 5.68 11 5 11 C4.71125 10.360625 4.4225 9.72125 4.125 9.0625 C3.17176549 6.84793921 3.17176549 6.84793921 1 6 C1 7.65 1 9.3 1 11 C0.67 11 0.34 11 0 11 C0 7.37 0 3.74 0 0 Z " fill="#9AA290" transform="translate(1708,802)"/>
<path d="M0 0 C0.66 0 1.32 0 2 0 C2 0.99 2 1.98 2 3 C2.66 3.33 3.32 3.66 4 4 C3.34 4 2.68 4 2 4 C2 6.31 2 8.62 2 11 C2.66 11.33 3.32 11.66 4 12 C3.401875 11.814375 2.80375 11.62875 2.1875 11.4375 C-0.16408762 10.77906313 -0.16408762 10.77906313 -3 12 C-3 9.03 -3 6.06 -3 3 C-2.01 3 -1.02 3 0 3 C0 2.01 0 1.02 0 0 Z " fill="#A5ABA2" transform="translate(1063,803)"/>
<path d="M0 0 C1.98 0 3.96 0 6 0 C6.33 1.65 6.66 3.3 7 5 C6.34 5 5.68 5 5 5 C4.67 5.99 4.34 6.98 4 8 C4 7.34 4 6.68 4 6 C3.01 6 2.02 6 1 6 C1 7.65 1 9.3 1 11 C0.67 11 0.34 11 0 11 C0 7.37 0 3.74 0 0 Z " fill="#BFD8D2" transform="translate(1760,802)"/>
<path d="M0 0 C0.66 0 1.32 0 2 0 C2.53229326 1.26607607 3.05044544 2.53810412 3.5625 3.8125 C3.85253906 4.52019531 4.14257812 5.22789062 4.44140625 5.95703125 C5 8 5 8 4 11 C3.67 10.34 3.34 9.68 3 9 C0.47266765 8.34444881 0.47266765 8.34444881 -2 8 C-2.33 8.99 -2.66 9.98 -3 11 C-3.33 10.34 -3.66 9.68 -4 9 C-3.22265625 6.8359375 -3.22265625 6.8359375 -2.0625 4.375 C-1.68222656 3.55773437 -1.30195312 2.74046875 -0.91015625 1.8984375 C-0.60980469 1.27195312 -0.30945312 0.64546875 0 0 Z " fill="#A3ABA2" transform="translate(1701,802)"/>
<path d="M0 0 C1.65 0 3.3 0 5 0 C6 1 6 1 6.0625 3.5625 C6.041875 4.366875 6.02125 5.17125 6 6 C4.35 6.33 2.7 6.66 1 7 C0.67 8.32 0.34 9.64 0 11 C0 7.37 0 3.74 0 0 Z " fill="#DBE4CE" transform="translate(1752,802)"/>
<path d="M0 0 C3.375 -0.125 3.375 -0.125 7 0 C9 2 9 2 9.1953125 3.9453125 C9.13020833 5.96354167 9.06510417 7.98177083 9 10 C8.34 10 7.68 10 7 10 C6.67 7.36 6.34 4.72 6 2 C5.01 2 4.02 2 3 2 C2.67 4.64 2.34 7.28 2 10 C1.34 10 0.68 10 0 10 C0 6.7 0 3.4 0 0 Z " fill="#B9BB9D" transform="translate(1257,46)"/>
<path d="M0 0 C0 1.98 0 3.96 0 6 C-1.65614657 6.38218767 -3.32457024 6.71395102 -5 7 C-6 6 -6 6 -6.0625 2.9375 C-6.041875 1.968125 -6.02125 0.99875 -6 0 C-3.50907189 -1.24546405 -2.58919267 -0.7767578 0 0 Z " fill="#212131" transform="translate(1287,48)"/>
<path d="M0 0 C1.67542976 0.28604898 3.34385343 0.61781233 5 1 C5.125 3.375 5.125 3.375 5 6 C4.34 6.66 3.68 7.32 3 8 C0.875 7.625 0.875 7.625 -1 7 C-1.04254356 5.00045254 -1.04080783 2.99958364 -1 1 C-0.67 0.67 -0.34 0.34 0 0 Z " fill="#272228" transform="translate(1144,47)"/>
<path d="M0 0 C0 0.33 0 0.66 0 1 C-0.969375 1.309375 -1.93875 1.61875 -2.9375 1.9375 C-5.84065792 2.69523342 -5.84065792 2.69523342 -7 4 C-7.07148199 5.35243917 -7.08399454 6.70834367 -7.0625 8.0625 C-7.041875 9.361875 -7.02125 10.66125 -7 12 C-4.36 12 -1.72 12 1 12 C1 12.66 1 13.32 1 14 C-2.49186021 14.20145347 -5.19917389 14.34907805 -8.4375 12.9375 C-10 11 -10 11 -10.5 7.5625 C-10 4 -10 4 -8.375 1.5625 C-5.397402 -0.39644605 -3.49644963 -0.31785906 0 0 Z " fill="#C1C9C3" transform="translate(1752,42)"/>
<path d="M0 0 C0.33 0 0.66 0 1 0 C1 2.64 1 5.28 1 8 C-0.98 8 -2.96 8 -5 8 C-5.625 6.125 -5.625 6.125 -6 4 C-5.34 3.34 -4.68 2.68 -4 2 C-2.68 2 -1.36 2 0 2 C0 1.34 0 0.68 0 0 Z " fill="#8B969A" transform="translate(180,807)"/>
<path d="M0 0 C0.33 0.99 0.66 1.98 1 3 C1.99 3.33 2.98 3.66 4 4 C4 6.31 4 8.62 4 11 C2.68 11.33 1.36 11.66 0 12 C0 9.36 0 6.72 0 4 C-0.66 3.67 -1.32 3.34 -2 3 C-1.34 3 -0.68 3 0 3 C0 2.01 0 1.02 0 0 Z " fill="#471B1B" transform="translate(994,803)"/>
<path d="M0 0 C0.66 0 1.32 0 2 0 C2 2.64 2 5.28 2 8 C2.99 7.67 3.98 7.34 5 7 C5.33 4.69 5.66 2.38 6 0 C6.66 0 7.32 0 8 0 C8 2.97 8 5.94 8 9 C5.69 9 3.38 9 1 9 C-0.4783226 6.04335481 -0.06032783 3.25770263 0 0 Z " fill="#ACBEA4" transform="translate(137,806)"/>
<path d="M0 0 C2.33294775 -0.04241723 4.66702567 -0.04092937 7 0 C8 1 8 1 8.09765625 3.06640625 C8.08605469 3.89011719 8.07445312 4.71382812 8.0625 5.5625 C8.05347656 6.38878906 8.04445313 7.21507812 8.03515625 8.06640625 C8.02355469 8.70449219 8.01195312 9.34257813 8 10 C7.34 10 6.68 10 6 10 C5.67 7.36 5.34 4.72 5 2 C4.01 2.33 3.02 2.66 2 3 C1.67 5.31 1.34 7.62 1 10 C0.67 10 0.34 10 0 10 C0 6.7 0 3.4 0 0 Z " fill="#B2C7BA" transform="translate(1767,46)"/>
<path d="M0 0 C0.66 0 1.32 0 2 0 C2.33 2.64 2.66 5.28 3 8 C3.99 7.67 4.98 7.34 6 7 C6.33 4.69 6.66 2.38 7 0 C7.33 0 7.66 0 8 0 C8 3.3 8 6.6 8 10 C5.69 10 3.38 10 1 10 C-0.60725635 6.78548731 -0.05748185 3.56387464 0 0 Z " fill="#BDB58D" transform="translate(1164,46)"/>
<path d="M0 0 C0.66 0 1.32 0 2 0 C2.33 2.64 2.66 5.28 3 8 C3.99 7.67 4.98 7.34 6 7 C6.33 4.69 6.66 2.38 7 0 C7.33 0 7.66 0 8 0 C8 3.3 8 6.6 8 10 C5.69 10 3.38 10 1 10 C-0.60725635 6.78548731 -0.05748185 3.56387464 0 0 Z " fill="#BDB58D" transform="translate(1016,46)"/>
<path d="M0 0 C2.0625 0.4375 2.0625 0.4375 4 1 C4 2.65 4 4.3 4 6 C0.25 7.125 0.25 7.125 -2 6 C-1.125 1.125 -1.125 1.125 0 0 Z " fill="#2C201F" transform="translate(269,807)"/>
<path d="M0 0 C1.67542976 0.28604898 3.34385343 0.61781233 5 1 C4.67 2.65 4.34 4.3 4 6 C2.0625 6.5625 2.0625 6.5625 0 7 C-1 6 -1 6 -1.125 3.5 C-1 1 -1 1 0 0 Z " fill="#322A2F" transform="translate(130,807)"/>
<path d="M0 0 C2.31 0 4.62 0 7 0 C7 0.33 7 0.66 7 1 C5.35 1 3.7 1 2 1 C2 2.65 2 4.3 2 6 C3.32 6.33 4.64 6.66 6 7 C4.68 7 3.36 7 2 7 C2 8.98 2 10.96 2 13 C1.34 13 0.68 13 0 13 C0 8.71 0 4.42 0 0 Z " fill="#A2C7C3" transform="translate(100,802)"/>
<path d="M0 0 C1.65 0 3.3 0 5 0 C5 2.31 5 4.62 5 7 C3.35 7 1.7 7 0 7 C0 4.69 0 2.38 0 0 Z " fill="#F0F0F0" transform="translate(166,32)"/>
<path d="M0 0 C2.31 0 4.62 0 7 0 C7 2.97 7 5.94 7 9 C6.34 9 5.68 9 5 9 C5 6.36 5 3.72 5 1 C1.68539295 2.70892499 1.68539295 2.70892499 1.3125 6.125 C1.209375 7.07375 1.10625 8.0225 1 9 C0.67 9 0.34 9 0 9 C0 6.03 0 3.06 0 0 Z " fill="#9CB8BD" transform="translate(216,806)"/>
<path d="M0 0 C1.98 0 3.96 0 6 0 C4.68 0.33 3.36 0.66 2 1 C2 2.65 2 4.3 2 6 C3.32 6.33 4.64 6.66 6 7 C4.68 7 3.36 7 2 7 C2 8.98 2 10.96 2 13 C1.34 13 0.68 13 0 13 C0 8.71 0 4.42 0 0 Z " fill="#C0C8AC" transform="translate(952,802)"/>
<path d="M0 0 C2.875 -0.125 2.875 -0.125 6 0 C6.66 0.66 7.32 1.32 8 2 C7.625 5.625 7.625 5.625 7 9 C6.67 9 6.34 9 6 9 C5.67 6.69 5.34 4.38 5 2 C4.34 2 3.68 2 3 2 C2.67 4.31 2.34 6.62 2 9 C1.34 9 0.68 9 0 9 C0 6.03 0 3.06 0 0 Z " fill="#BDCCB4" transform="translate(276,806)"/>
<path d="M0 0 C1.65 0 3.3 0 5 0 C5 0.66 5 1.32 5 2 C4.01 2.66 3.02 3.32 2 4 C2.99 4.66 3.98 5.32 5 6 C4.67 7.32 4.34 8.64 4 10 C2.35 10 0.7 10 -1 10 C-0.67 9.34 -0.34 8.68 0 8 C0.99 8.33 1.98 8.66 3 9 C3 8.01 3 7.02 3 6 C1.68 5.34 0.36 4.68 -1 4 C-0.67 2.68 -0.34 1.36 0 0 Z " fill="#B5B4A7" transform="translate(1309,46)"/>
<path d="M0 0 C1.32 0 2.64 0 4 0 C4 1.98 4 3.96 4 6 C2.0625 6.5625 2.0625 6.5625 0 7 C-1 6 -1 6 -1.125 3.5 C-1 1 -1 1 0 0 Z " fill="#2C211F" transform="translate(194,807)"/>
<path d="M0 0 C1.65 0 3.3 0 5 0 C3.68 1.32 2.36 2.64 1 4 C3.475 4.99 3.475 4.99 6 6 C5.67 7.32 5.34 8.64 5 10 C3.02 10 1.04 10 -1 10 C-1 9.34 -1 8.68 -1 8 C1.475 8.495 1.475 8.495 4 9 C4 8.01 4 7.02 4 6 C1.525 5.01 1.525 5.01 -1 4 C-0.67 2.68 -0.34 1.36 0 0 Z " fill="#B9C1B7" transform="translate(1268,46)"/>
<path d="M0 0 C1.65 0 3.3 0 5 0 C3.68 1.32 2.36 2.64 1 4 C3.475 4.99 3.475 4.99 6 6 C5.67 7.32 5.34 8.64 5 10 C3.02 10 1.04 10 -1 10 C-1 9.34 -1 8.68 -1 8 C1.475 8.495 1.475 8.495 4 9 C4 8.01 4 7.02 4 6 C1.525 5.01 1.525 5.01 -1 4 C-0.67 2.68 -0.34 1.36 0 0 Z " fill="#B9C1B7" transform="translate(948,46)"/>
<path d="M0 0 C0.66 0 1.32 0 2 0 C2.66 1.65 3.32 3.3 4 5 C4.99 3.35 5.98 1.7 7 0 C7.66 0.33 8.32 0.66 9 1 C7.68 3.97 6.36 6.94 5 10 C4.34 10 3.68 10 3 10 C2.01 6.7 1.02 3.4 0 0 Z " fill="#B4C3B4" transform="translate(914,46)"/>
<path d="M0 0 C2.0625 0.4375 2.0625 0.4375 4 1 C4 2.65 4 4.3 4 6 C2.0625 6.5625 2.0625 6.5625 0 7 C-1 6 -1 6 -1.125 3.5 C-1 1 -1 1 0 0 Z " fill="#1B1B28" transform="translate(1053,807)"/>
<path d="M0 0 C2.0625 0.4375 2.0625 0.4375 4 1 C4 2.65 4 4.3 4 6 C2.0625 6.5625 2.0625 6.5625 0 7 C-1 6 -1 6 -1.125 3.5 C-1 1 -1 1 0 0 Z " fill="#251C1E" transform="translate(293,807)"/>
<path d="M0 0 C2.0625 0.4375 2.0625 0.4375 4 1 C4 2.65 4 4.3 4 6 C2.0625 6.5625 2.0625 6.5625 0 7 C-1 6 -1 6 -1.125 3.5 C-1 1 -1 1 0 0 Z " fill="#251C1E" transform="translate(209,807)"/>
<path d="M0 0 C2.0625 0.4375 2.0625 0.4375 4 1 C4 2.65 4 4.3 4 6 C2.0625 6.5625 2.0625 6.5625 0 7 C-1 6 -1 6 -1.125 3.5 C-1 1 -1 1 0 0 Z " fill="#251C1E" transform="translate(149,807)"/>
<path d="M0 0 C0.33 0.99 0.66 1.98 1 3 C1.99 3.33 2.98 3.66 4 4 C3.34 4 2.68 4 2 4 C2 6.31 2 8.62 2 11 C2.66 11.33 3.32 11.66 4 12 C2.68 11.67 1.36 11.34 0 11 C0 8.69 0 6.38 0 4 C-1.98 4 -3.96 4 -6 4 C-6 3.67 -6 3.34 -6 3 C-4.02 3 -2.04 3 0 3 C0 2.01 0 1.02 0 0 Z " fill="#C7C8B7" transform="translate(1041,803)"/>
<path d="M0 0 C0.66 0 1.32 0 2 0 C2 0.99 2 1.98 2 3 C2.66 3.33 3.32 3.66 4 4 C3.34 4 2.68 4 2 4 C2 6.64 2 9.28 2 12 C2.66 12.33 3.32 12.66 4 13 C2.68 12.67 1.36 12.34 0 12 C-0.19573608 10.56359829 -0.38127816 9.12580496 -0.5625 7.6875 C-0.66691406 6.88699219 -0.77132813 6.08648437 -0.87890625 5.26171875 C-1 3 -1 3 0 0 Z " fill="#BDC6A7" transform="translate(1175,43)"/>
<path d="M0 0 C0.66 0 1.32 0 2 0 C2 0.99 2 1.98 2 3 C2.66 3.33 3.32 3.66 4 4 C3.34 4 2.68 4 2 4 C2 6.31 2 8.62 2 11 C2.66 11.33 3.32 11.66 4 12 C2.68 11.67 1.36 11.34 0 11 C-1.125 3.375 -1.125 3.375 0 0 Z " fill="#A1C5BE" transform="translate(1089,803)"/>
<path d="M0 0 C0.66 0 1.32 0 2 0 C2 0.99 2 1.98 2 3 C2.66 3.33 3.32 3.66 4 4 C3.34 4 2.68 4 2 4 C2 6.31 2 8.62 2 11 C2.66 11.33 3.32 11.66 4 12 C2.68 11.67 1.36 11.34 0 11 C-1.125 3.375 -1.125 3.375 0 0 Z " fill="#A1C5BE" transform="translate(241,803)"/>
<path d="M0 0 C2.475 0.495 2.475 0.495 5 1 C4.67 2.65 4.34 4.3 4 6 C2.68 6 1.36 6 0 6 C0 4.02 0 2.04 0 0 Z " fill="#372034" transform="translate(1113,803)"/>
<path d="M0 0 C0.99 0.33 1.98 0.66 3 1 C2.34 1.66 1.68 2.32 1 3 C0.75787127 4.98128508 0.75787127 4.98128508 0.875 7.125 C0.936875 9.043125 0.936875 9.043125 1 11 C1.66 11 2.32 11 3 11 C3 11.66 3 12.32 3 13 C1.0625 12.5 1.0625 12.5 -1 11 C-1.81891972 8.34853265 -2.16456946 5.77025253 -2 3 C-1.34 2.01 -0.68 1.02 0 0 Z " fill="#B4C0B7" transform="translate(1002,43)"/>
<path d="M0 0 C2 1 2 1 4 4 C4.99 2.68 5.98 1.36 7 0 C6.34 2.97 5.68 5.94 5 9 C4.01 8.67 3.02 8.34 2 8 C0.5522078 5.10441559 0 3.25811062 0 0 Z " fill="#B2B9AA" transform="translate(224,806)"/>
<path d="M0 0 C0.66 0 1.32 0 2 0 C2.33 1.65 2.66 3.3 3 5 C2.01 5.33 1.02 5.66 0 6 C-0.3721042 7.32303717 -0.70630173 8.65737935 -1 10 C-1.99 10.495 -1.99 10.495 -3 11 C-2.01 7.37 -1.02 3.74 0 0 Z " fill="#A8B8AD" transform="translate(1046,42)"/>
<path d="M0 0 C2.31 0 4.62 0 7 0 C7 0.99 7 1.98 7 3 C4.69 3.66 2.38 4.32 0 5 C-0.33 4.34 -0.66 3.68 -1 3 C-0.67 2.01 -0.34 1.02 0 0 Z " fill="#5E5A5C" transform="translate(231,806)"/>
<path d="M0 0 C1.98 0 3.96 0 6 0 C5.01 0.66 4.02 1.32 3 2 C2.42251197 3.96361864 2.42251197 3.96361864 2.3125 6.125 C2.209375 7.40375 2.10625 8.6825 2 10 C1.34 10 0.68 10 0 10 C0 6.7 0 3.4 0 0 Z " fill="#93BDB8" transform="translate(907,46)"/>
<path d="M0 0 C0.66 0.33 1.32 0.66 2 1 C2 2.65 2 4.3 2 6 C0.02 5.34 -1.96 4.68 -4 4 C-3.67 3.01 -3.34 2.02 -3 1 C-2.01 0.67 -1.02 0.34 0 0 Z " fill="#2B1F20" transform="translate(1273,46)"/>
<path d="M0 0 C1.98 0 3.96 0 6 0 C5.01 0.66 4.02 1.32 3 2 C2.26393501 5.56769552 2.26393501 5.56769552 2 9 C1.34 9 0.68 9 0 9 C0 6.03 0 3.06 0 0 Z " fill="#B9C1A6" transform="translate(183,806)"/>
<path d="M0 0 C0.33 0.99 0.66 1.98 1 3 C1.99 3.33 2.98 3.66 4 4 C3.01 4 2.02 4 1 4 C1 6.64 1 9.28 1 12 C1.99 12.33 2.98 12.66 4 13 C2.68 13 1.36 13 0 13 C0 10.03 0 7.06 0 4 C-0.66 3.67 -1.32 3.34 -2 3 C-1.34 3 -0.68 3 0 3 C0 2.01 0 1.02 0 0 Z " fill="#DAE7D1" transform="translate(1803,43)"/>
<path d="M0 0 C0.33 0.99 0.66 1.98 1 3 C1.99 3.33 2.98 3.66 4 4 C3.01 4 2.02 4 1 4 C1 6.64 1 9.28 1 12 C1.99 12.33 2.98 12.66 4 13 C2.68 13 1.36 13 0 13 C0 10.03 0 7.06 0 4 C-0.66 3.67 -1.32 3.34 -2 3 C-1.34 3 -0.68 3 0 3 C0 2.01 0 1.02 0 0 Z " fill="#DAE7D1" transform="translate(1778,43)"/>
<path d="M0 0 C0.33 0.99 0.66 1.98 1 3 C1.66 3.33 2.32 3.66 3 4 C2.34 4 1.68 4 1 4 C1 6.64 1 9.28 1 12 C1.99 12.33 2.98 12.66 4 13 C2.68 13 1.36 13 0 13 C0 10.03 0 7.06 0 4 C-0.66 3.67 -1.32 3.34 -2 3 C-1.34 3 -0.68 3 0 3 C0 2.01 0 1.02 0 0 Z " fill="#E8E1C2" transform="translate(1303,43)"/>
<path d="M0 0 C0.66 0 1.32 0 2 0 C2 2.97 2 5.94 2 9 C1.01 8.67 0.02 8.34 -1 8 C-0.67 5.36 -0.34 2.72 0 0 Z " fill="#95B9B2" transform="translate(143,806)"/>
<path d="M0 0 C0.8353125 1.2375 0.8353125 1.2375 1.6875 2.5 C3.74927133 5.2745414 3.74927133 5.2745414 6.75 5.3125 C7.4925 5.209375 8.235 5.10625 9 5 C8.67 5.66 8.34 6.32 8 7 C5.125 7.1875 5.125 7.1875 2 7 C0 4 0 4 0 0 Z " fill="#A2BDC3" transform="translate(896,49)"/>
<path d="M0 0 C2.97 0.495 2.97 0.495 6 1 C6 1.99 6 2.98 6 4 C3.03 3.505 3.03 3.505 0 3 C0 2.01 0 1.02 0 0 Z " fill="#19212C" transform="translate(1266,51)"/>
<path d="M0 0 C0.33 0.99 0.66 1.98 1 3 C1.66 3.33 2.32 3.66 3 4 C2.34 4 1.68 4 1 4 C1 6.31 1 8.62 1 11 C1.66 11.33 2.32 11.66 3 12 C2.01 12 1.02 12 0 12 C0 9.36 0 6.72 0 4 C-0.66 3.67 -1.32 3.34 -2 3 C-1.34 3 -0.68 3 0 3 C0 2.01 0 1.02 0 0 Z " fill="#C9E9E4" transform="translate(994,803)"/>
<path d="M0 0 C2.475 0.495 2.475 0.495 5 1 C4.67 1.99 4.34 2.98 4 4 C2.68 4 1.36 4 0 4 C0 2.68 0 1.36 0 0 Z " fill="#3E3A3B" transform="translate(1761,803)"/>
<path d="M0 0 C1.32 0.33 2.64 0.66 4 1 C3.67 2.32 3.34 3.64 3 5 C2.01 5 1.02 5 0 5 C0 3.35 0 1.7 0 0 Z " fill="#181820" transform="translate(1753,803)"/>
<path d="M0 0 C0.33 0 0.66 0 1 0 C1 3.3 1 6.6 1 10 C-0.98 10 -2.96 10 -5 10 C-4.360625 9.649375 -3.72125 9.29875 -3.0625 8.9375 C-0.17836168 6.22815794 -0.2899178 3.84141089 0 0 Z " fill="#CFE3D9" transform="translate(1171,46)"/>
<path d="M0 0 C0.33 0 0.66 0 1 0 C1 3.3 1 6.6 1 10 C-0.98 10 -2.96 10 -5 10 C-4.360625 9.649375 -3.72125 9.29875 -3.0625 8.9375 C-0.17836168 6.22815794 -0.2899178 3.84141089 0 0 Z " fill="#CFE3D9" transform="translate(1023,46)"/>
<path d="M0 0 C3 3.75 3 3.75 3 6 C1.35 6 -0.3 6 -2 6 C-1.34 4.02 -0.68 2.04 0 0 Z " fill="#372835" transform="translate(1133,45)"/>
</svg>
